<?xml version="1.0" encoding="UTF-8"?>
<svg xmlns="http://www.w3.org/2000/svg" xmlns:xlink="http://www.w3.org/1999/xlink" width="336px" height="400px" viewBox="0 0 336 399" version="1.1">
<g id="surface1">
<path style=" stroke:none;fill-rule:nonzero;fill:rgb(100%,73.333335%,0%);fill-opacity:1;" d="M 9.789062 303.375 L 326.203125 303.375 C 328.828125 303.375 330.953125 305.5 330.953125 308.121094 L 330.953125 389.226562 C 330.953125 391.847656 328.828125 393.972656 326.203125 393.972656 L 9.789062 393.972656 C 7.164062 393.972656 5.035156 391.847656 5.035156 389.226562 L 5.035156 308.121094 C 5.035156 305.5 7.164062 303.375 9.789062 303.375 Z M 9.789062 303.375 "/>
<path style=" stroke:none;fill-rule:nonzero;fill:rgb(0%,0%,0%);fill-opacity:1;" d="M 8.230469 298.335938 C 3.671875 298.335938 0 302.011719 0 306.566406 L 0 390.78125 C 0 395.335938 3.671875 399 8.230469 399 L 327.765625 399 C 332.328125 399 335.996094 395.335938 335.996094 390.78125 L 335.996094 306.566406 C 335.996094 302.011719 332.328125 298.335938 327.765625 298.335938 Z M 10.089844 303.371094 L 325.90625 303.371094 C 328.707031 303.371094 330.957031 305.628906 330.957031 308.425781 L 330.957031 388.925781 C 330.957031 391.71875 328.707031 393.96875 325.90625 393.96875 L 10.089844 393.96875 C 7.292969 393.96875 5.039062 391.71875 5.039062 388.925781 L 5.039062 308.425781 C 5.039062 305.628906 7.292969 303.371094 10.089844 303.371094 Z M 10.089844 303.371094 "/>
<path style="fill-rule:nonzero;fill:rgb(0%,0%,0%);fill-opacity:1;stroke-width:1.881482;stroke-linecap:butt;stroke-linejoin:miter;stroke:rgb(0%,0%,0%);stroke-opacity:1;stroke-miterlimit:4;" d="M -123.364064 1523.766684 C -127.874886 1523.766684 -132.013682 1523.231181 -135.768825 1522.171816 C -139.523968 1521.089168 -142.779201 1519.412811 -145.511271 1517.154384 C -148.208464 1514.861034 -150.335991 1511.93905 -151.8706 1508.388431 C -153.370333 1504.826171 -154.126012 1500.588712 -154.126012 1495.676052 L -154.126012 1450.507528 L -139.000806 1450.507528 L -139.000806 1494.488632 C -139.000806 1497.538672 -138.628779 1500.169622 -137.8731 1502.381483 C -137.117422 1504.570061 -136.047845 1506.386115 -134.64112 1507.818004 C -133.24602 1509.22661 -131.548649 1510.262692 -129.560632 1510.949533 C -127.584241 1511.60145 -125.375333 1511.927408 -122.95716 1511.927408 C -120.492484 1511.927408 -118.237073 1511.578167 -116.179301 1510.902967 C -114.098277 1510.181202 -112.319525 1509.086913 -110.85467 1507.6201 C -109.343312 1506.141646 -108.192355 1504.279027 -107.366921 1502.032242 C -106.541487 1499.773815 -106.134583 1497.084658 -106.134583 1493.976412 L -106.134583 1450.507528 L -91.009378 1450.507528 L -91.009378 1494.907722 C -91.009378 1499.855305 -91.81156 1504.150971 -93.415925 1507.771438 C -95.031915 1511.391905 -97.264075 1514.40702 -100.135655 1516.793502 C -103.007235 1519.1567 -106.425229 1520.914548 -110.389637 1522.078685 C -114.319168 1523.207898 -118.643977 1523.766684 -123.364064 1523.766684 " transform="matrix(0.335998,0,0,0.335549,159.828924,-168.829529)"/>
<path style="fill-rule:nonzero;fill:rgb(0%,0%,0%);fill-opacity:1;stroke-width:1.881482;stroke-linecap:butt;stroke-linejoin:miter;stroke:rgb(0%,0%,0%);stroke-opacity:1;stroke-miterlimit:4;" d="M -33.880047 1522.742243 L -65.362796 1467.108125 C -65.188408 1468.621503 -65.037272 1470.12324 -64.897762 1471.624977 C -64.758253 1472.928811 -64.65362 1474.325776 -64.583865 1475.827513 C -64.490858 1477.32925 -64.432729 1478.77278 -64.432729 1480.13482 L -64.432729 1522.742243 L -77.872189 1522.742243 L -77.872189 1450.507528 L -60.584579 1450.507528 L -28.648423 1506.59566 C -28.82281 1505.152129 -28.973946 1503.650392 -29.113456 1502.078807 C -29.252966 1500.751691 -29.369225 1499.238312 -29.473857 1497.573596 C -29.531986 1495.897239 -29.566864 1494.197598 -29.566864 1492.497958 L -29.566864 1450.507528 L -16.139029 1450.507528 L -16.139029 1522.742243 L -33.880047 1522.742243 " transform="matrix(0.335998,0,0,0.335549,159.828924,-168.829529)"/>
<path style="fill-rule:nonzero;fill:rgb(0%,0%,0%);fill-opacity:1;stroke-width:1.881482;stroke-linecap:butt;stroke-linejoin:miter;stroke:rgb(0%,0%,0%);stroke-opacity:1;stroke-miterlimit:4;" d="M 62.067932 1486.083562 C 62.067932 1492.102151 61.161118 1497.398976 59.347488 1501.974035 C 57.533858 1506.525811 55.057557 1510.33254 51.918582 1513.405862 C 48.767982 1516.490826 45.047716 1518.807459 40.734533 1520.379044 C 36.467854 1521.95063 31.852399 1522.742243 26.899795 1522.742243 L -2.327543 1522.742243 L -2.327543 1450.507528 L 23.81895 1450.507528 C 29.4226 1450.507528 34.572843 1451.20601 39.246427 1452.602975 C 43.931637 1454.011581 47.9658 1456.153594 51.348917 1459.063937 C 54.732033 1461.97428 57.371097 1465.664595 59.242856 1470.134882 C 61.12624 1474.61681 62.067932 1479.936917 62.067932 1486.083562 M 46.838094 1486.083562 C 46.838094 1481.881026 46.256803 1478.272201 45.09422 1475.268727 C 43.966514 1472.253611 42.373775 1469.797282 40.327629 1467.888097 C 38.281483 1465.932346 35.816807 1464.500457 32.945227 1463.580789 C 30.108524 1462.649479 26.957924 1462.195466 23.516678 1462.195466 L 12.797663 1462.195466 L 12.797663 1511.054305 L 25.609328 1511.054305 C 28.655295 1511.054305 31.457121 1510.518802 34.026429 1509.459437 C 36.618989 1508.400072 38.862775 1506.828487 40.734533 1504.744681 C 42.652795 1502.625952 44.140902 1500.006643 45.198852 1496.898397 C 46.29168 1493.79015 46.838094 1490.181325 46.838094 1486.083562 " transform="matrix(0.335998,0,0,0.335549,159.828924,-168.829529)"/>
<path style="fill-rule:nonzero;fill:rgb(0%,0%,0%);fill-opacity:1;stroke-width:1.881482;stroke-linecap:butt;stroke-linejoin:miter;stroke:rgb(0%,0%,0%);stroke-opacity:1;stroke-miterlimit:4;" d="M 73.205478 1522.742243 L 73.205478 1450.507528 L 130.020912 1450.507528 L 130.020912 1462.195466 L 88.330683 1462.195466 L 88.330683 1480.344365 L 126.893563 1480.344365 L 126.893563 1492.032303 L 88.330683 1492.032303 L 88.330683 1511.054305 L 132.113561 1511.054305 L 132.113561 1522.742243 L 73.205478 1522.742243 " transform="matrix(0.335998,0,0,0.335549,159.828924,-168.829529)"/>
<path style="fill-rule:nonzero;fill:rgb(0%,0%,0%);fill-opacity:1;stroke-width:1.881482;stroke-linecap:butt;stroke-linejoin:miter;stroke:rgb(0%,0%,0%);stroke-opacity:1;stroke-miterlimit:4;" d="M 192.637635 1522.742243 L 175.873187 1495.31517 L 158.13217 1495.31517 L 158.13217 1522.742243 L 143.006964 1522.742243 L 143.006964 1450.507528 L 179.105168 1450.507528 C 183.61599 1450.507528 187.545521 1451.019748 190.89376 1452.044189 C 194.276877 1453.033706 197.090328 1454.465595 199.357365 1456.351497 C 201.612776 1458.190834 203.286895 1460.44926 204.379723 1463.115134 C 205.507429 1465.746084 206.065469 1468.714634 206.065469 1472.032425 C 206.065469 1474.733224 205.658565 1477.212836 204.833131 1479.471262 C 204.0542 1481.694764 202.93812 1483.673798 201.508143 1485.420003 C 200.101418 1487.154568 198.427298 1488.633022 196.485784 1489.832084 C 194.532645 1490.984579 192.416744 1491.846041 190.126455 1492.393185 L 209.65785 1522.742243 L 192.637635 1522.742243 M 190.835631 1472.649418 C 190.835631 1469.133724 189.684674 1466.514415 187.359508 1464.803133 C 185.069219 1463.103493 181.779109 1462.242031 177.512429 1462.242031 L 158.13217 1462.242031 L 158.13217 1483.569025 L 177.919333 1483.569025 C 180.174744 1483.569025 182.104632 1483.312915 183.708997 1482.800695 C 185.359865 1482.25355 186.685209 1481.508502 187.708282 1480.542268 C 188.777859 1479.552752 189.55679 1478.388615 190.068326 1477.061498 C 190.579863 1475.72274 190.835631 1474.255927 190.835631 1472.649418 " transform="matrix(0.335998,0,0,0.335549,159.828924,-168.829529)"/>
<path style="fill-rule:nonzero;fill:rgb(0%,0%,0%);fill-opacity:1;stroke-width:1.881482;stroke-linecap:butt;stroke-linejoin:miter;stroke:rgb(0%,0%,0%);stroke-opacity:1;stroke-miterlimit:4;" d="M -354.729717 1622.124638 C -351.893014 1622.124638 -349.45159 1621.728831 -347.405443 1620.937218 C -345.312794 1620.122322 -343.522416 1619.062957 -342.011058 1617.759124 C -340.476448 1616.466931 -339.209233 1615.000118 -338.221037 1613.358685 C -337.197964 1611.717251 -336.360904 1610.052535 -335.709858 1608.387819 L -322.537792 1613.358685 C -323.595743 1615.954711 -324.979216 1618.504171 -326.688214 1620.995425 C -328.397211 1623.486679 -330.536363 1625.698539 -333.094046 1627.607724 C -335.663355 1629.51691 -338.720948 1631.076853 -342.278452 1632.275915 C -345.789453 1633.440052 -349.9515 1634.022121 -354.729717 1634.022121 C -360.984413 1634.022121 -366.40205 1633.090811 -370.982628 1631.251474 C -375.563205 1629.365572 -379.353226 1626.769546 -382.364316 1623.451755 C -385.340528 1620.110681 -387.561062 1616.140973 -389.025917 1611.565913 C -390.46752 1606.979213 -391.188321 1601.973423 -391.188321 1596.536902 C -391.188321 1590.902478 -390.46752 1585.803557 -389.025917 1581.263421 C -387.561062 1576.711645 -385.352154 1572.846709 -382.422445 1569.668615 C -379.48111 1566.455596 -375.77247 1563.999266 -371.296525 1562.287985 C -366.774077 1560.55342 -361.484324 1559.680317 -355.392389 1559.680317 C -350.683928 1559.680317 -346.556758 1560.169255 -343.045757 1561.158771 C -339.488253 1562.148288 -336.430659 1563.556894 -333.861351 1565.361307 C -331.268791 1567.142437 -329.129638 1569.261167 -327.455518 1571.729138 C -325.746521 1574.150543 -324.409551 1576.8397 -323.456233 1579.773326 L -336.79106 1583.417075 C -337.267719 1581.880414 -338.000147 1580.40196 -338.988342 1579.004995 C -339.988164 1577.573106 -341.243753 1576.304197 -342.789989 1575.209908 C -344.289721 1574.115619 -346.068473 1573.242516 -348.114619 1572.590599 C -350.172391 1571.915399 -352.497557 1571.566158 -355.090117 1571.566158 C -358.752254 1571.566158 -361.891228 1572.17151 -364.518666 1573.370571 C -367.157729 1574.523067 -369.33176 1576.199424 -371.040757 1578.388002 C -372.714876 1580.57658 -373.95884 1583.207531 -374.772648 1586.280853 C -375.563205 1589.330892 -375.958483 1592.741814 -375.958483 1596.536902 C -375.958483 1600.297065 -375.563205 1603.754553 -374.772648 1606.897723 C -373.95884 1610.00597 -372.691625 1612.683485 -370.982628 1614.941911 C -369.273631 1617.200338 -367.087974 1618.958185 -364.425659 1620.227094 C -361.716841 1621.484363 -358.496486 1622.124638 -354.729717 1622.124638 " transform="matrix(0.335998,0,0,0.335549,159.828924,-168.829529)"/>
<path style="fill-rule:nonzero;fill:rgb(0%,0%,0%);fill-opacity:1;stroke-width:1.881482;stroke-linecap:butt;stroke-linejoin:miter;stroke:rgb(0%,0%,0%);stroke-opacity:1;stroke-miterlimit:4;" d="M -242.691588 1596.536902 C -242.691588 1602.182967 -243.528648 1607.305171 -245.202768 1611.915155 C -246.876887 1616.536779 -249.283434 1620.483205 -252.434034 1623.766072 C -255.573008 1627.048939 -259.421158 1629.575116 -263.966858 1631.356246 C -268.47768 1633.125735 -273.58142 1634.022121 -279.289703 1634.022121 C -285.34676 1634.022121 -290.648139 1633.090811 -295.193839 1631.251474 C -299.704661 1629.365572 -303.47143 1626.769546 -306.517398 1623.451755 C -309.563365 1620.110681 -311.853654 1616.140973 -313.388263 1611.565913 C -314.887996 1606.979213 -315.643675 1601.973423 -315.643675 1596.536902 C -315.643675 1590.902478 -314.853118 1585.803557 -313.283631 1581.263421 C -311.679266 1576.711645 -309.342474 1572.846709 -306.261629 1569.668615 C -303.157533 1566.455596 -299.34426 1563.999266 -294.833438 1562.287985 C -290.287738 1560.55342 -285.06774 1559.680317 -279.196696 1559.680317 C -273.314026 1559.680317 -268.11728 1560.55342 -263.606457 1562.287985 C -259.060758 1564.03419 -255.247485 1566.513803 -252.178266 1569.726821 C -249.062543 1572.93984 -246.7025 1576.816417 -245.098135 1581.368194 C -243.493771 1585.873405 -242.691588 1590.937402 -242.691588 1596.536902 M -258.119065 1596.536902 C -258.119065 1592.741814 -258.584099 1589.330892 -259.502539 1586.280853 C -260.397728 1583.207531 -261.723073 1580.57658 -263.501825 1578.388002 C -265.280577 1576.199424 -267.489485 1574.523067 -270.116922 1573.370571 C -272.721108 1572.17151 -275.743824 1571.566158 -279.196696 1571.566158 C -282.707697 1571.566158 -285.811794 1572.17151 -288.474109 1573.370571 C -291.101546 1574.523067 -293.310454 1576.199424 -295.089206 1578.388002 C -296.867958 1580.57658 -298.193303 1583.207531 -299.088492 1586.280853 C -299.972055 1589.330892 -300.413837 1592.741814 -300.413837 1596.536902 C -300.413837 1600.297065 -299.972055 1603.754553 -299.088492 1606.897723 C -298.158425 1610.00597 -296.809829 1612.683485 -295.031077 1614.941911 C -293.252325 1617.200338 -291.055043 1618.958185 -288.41598 1620.227094 C -285.788542 1621.484363 -282.742574 1622.124638 -279.289703 1622.124638 C -275.604314 1622.124638 -272.430463 1621.484363 -269.756522 1620.227094 C -267.094206 1618.923261 -264.90855 1617.153772 -263.199553 1614.895346 C -261.455679 1612.601996 -260.176837 1609.901197 -259.351403 1606.792951 C -258.525969 1603.64978 -258.119065 1600.227217 -258.119065 1596.536902 " transform="matrix(0.335998,0,0,0.335549,159.828924,-168.829529)"/>
<path style="fill-rule:nonzero;fill:rgb(0%,0%,0%);fill-opacity:1;stroke-width:1.881482;stroke-linecap:butt;stroke-linejoin:miter;stroke:rgb(0%,0%,0%);stroke-opacity:1;stroke-miterlimit:4;" d="M -187.654907 1632.986038 L -219.137656 1577.363562 C -218.963268 1578.865299 -218.812132 1580.367036 -218.672622 1581.880414 C -218.533112 1583.172606 -218.440106 1584.581213 -218.370351 1586.08295 C -218.265718 1587.584687 -218.219215 1589.016575 -218.219215 1590.390257 L -218.219215 1632.986038 L -231.647049 1632.986038 L -231.647049 1560.751323 L -214.371065 1560.751323 L -182.423283 1616.839455 C -182.59767 1615.407566 -182.748806 1613.905829 -182.888316 1612.334244 C -183.027826 1610.995486 -183.144084 1609.493749 -183.248717 1607.817392 C -183.318472 1606.141034 -183.353349 1604.453035 -183.353349 1602.741753 L -183.353349 1560.751323 L -169.913889 1560.751323 L -169.913889 1632.986038 L -187.654907 1632.986038 " transform="matrix(0.335998,0,0,0.335549,159.828924,-168.829529)"/>
<path style="fill-rule:nonzero;fill:rgb(0%,0%,0%);fill-opacity:1;stroke-width:1.881482;stroke-linecap:butt;stroke-linejoin:miter;stroke:rgb(0%,0%,0%);stroke-opacity:1;stroke-miterlimit:4;" d="M -97.19432 1612.171265 C -97.19432 1615.454132 -97.798863 1618.445964 -98.996323 1621.146763 C -100.193784 1623.812637 -102.053917 1626.105987 -104.576722 1628.015172 C -107.076276 1629.935999 -110.285005 1631.414453 -114.226161 1632.473818 C -118.120814 1633.5099 -122.771147 1634.022121 -128.165532 1634.022121 C -132.955374 1634.022121 -137.175551 1633.59139 -140.826061 1632.729928 C -144.488198 1631.880108 -147.627172 1630.611199 -150.266236 1628.946482 C -152.858796 1627.270125 -154.974697 1625.19796 -156.625565 1622.741631 C -158.22993 1620.238736 -159.392513 1617.3866 -160.101688 1614.173581 L -145.499645 1611.763817 C -145.081115 1613.370326 -144.488198 1614.837139 -143.697642 1616.175897 C -142.918711 1617.503013 -141.837509 1618.667151 -140.465661 1619.656667 C -139.070561 1620.622901 -137.338312 1621.367949 -135.292166 1621.915093 C -133.211142 1622.427314 -130.699963 1622.683424 -127.758628 1622.683424 C -122.631637 1622.683424 -118.713732 1621.915093 -116.016539 1620.378432 C -113.284469 1618.806847 -111.912621 1616.362159 -111.912621 1613.044368 C -111.912621 1611.065334 -112.459035 1609.447184 -113.551863 1608.178274 C -114.644691 1606.909365 -116.09792 1605.873282 -117.91155 1605.046745 C -119.725179 1604.231849 -121.806203 1603.545008 -124.166246 1602.997863 C -126.52629 1602.450719 -128.990966 1601.926857 -131.548649 1601.414637 C -133.594795 1600.925699 -135.652567 1600.436762 -137.698713 1599.924541 C -139.756485 1599.412321 -141.72125 1598.795328 -143.593009 1598.073563 C -145.441516 1597.363439 -147.173765 1596.501978 -148.778129 1595.512461 C -150.382494 1594.522944 -151.78922 1593.312242 -152.975054 1591.868712 C -154.137637 1590.401899 -155.067704 1588.690617 -155.753628 1586.746508 C -156.393048 1584.802399 -156.718572 1582.509048 -156.718572 1579.878098 C -156.718572 1576.292555 -156.009396 1573.207592 -154.567793 1570.64649 C -153.137816 1568.085388 -151.149799 1566.001582 -148.626994 1564.395073 C -146.057685 1562.753639 -143.011718 1561.554578 -139.500717 1560.80953 C -135.97809 1560.052841 -132.12994 1559.680317 -127.956267 1559.680317 C -123.247806 1559.680317 -119.213643 1560.052841 -115.865403 1560.80953 C -112.482287 1561.519654 -109.65721 1562.637226 -107.401799 1564.138963 C -105.11151 1565.6407 -103.321132 1567.538244 -102.019039 1569.831594 C -100.682069 1572.078379 -99.717125 1574.732612 -99.100956 1577.77101 L -113.761128 1579.773326 C -114.516807 1576.665079 -116.051417 1574.325164 -118.376583 1572.753578 C -120.666871 1571.181993 -123.956981 1570.39038 -128.270165 1570.39038 C -130.93248 1570.39038 -133.153013 1570.634849 -134.931765 1571.112145 C -136.67564 1571.554517 -138.082365 1572.17151 -139.140316 1572.951482 C -140.163389 1573.743095 -140.895816 1574.662763 -141.337598 1575.722128 C -141.791005 1576.746569 -142.011896 1577.840858 -142.011896 1579.004995 C -142.011896 1580.786125 -141.58174 1582.252938 -140.721429 1583.417075 C -139.872743 1584.546288 -138.675283 1585.500881 -137.140673 1586.280853 C -135.594438 1587.037542 -133.769182 1587.689459 -131.653281 1588.236603 C -129.502503 1588.748824 -127.142459 1589.272686 -124.57315 1589.81983 C -122.317739 1590.297126 -120.08558 1590.809347 -117.865046 1591.356491 C -115.644513 1591.868712 -113.516986 1592.485704 -111.505717 1593.207469 C -109.482822 1593.929234 -107.611064 1594.790696 -105.867189 1595.826778 C -104.123315 1596.851219 -102.611957 1598.108487 -101.356367 1599.610224 C -100.054274 1601.088678 -99.042827 1602.846526 -98.322025 1604.895407 C -97.577972 1606.944289 -97.19432 1609.377335 -97.19432 1612.171265 " transform="matrix(0.335998,0,0,0.335549,159.828924,-168.829529)"/>
<path style="fill-rule:nonzero;fill:rgb(0%,0%,0%);fill-opacity:1;stroke-width:1.881482;stroke-linecap:butt;stroke-linejoin:miter;stroke:rgb(0%,0%,0%);stroke-opacity:1;stroke-miterlimit:4;" d="M -53.702088 1572.439261 L -53.702088 1632.986038 L -68.827293 1632.986038 L -68.827293 1572.439261 L -92.160335 1572.439261 L -92.160335 1560.751323 L -30.322543 1560.751323 L -30.322543 1572.439261 L -53.702088 1572.439261 " transform="matrix(0.335998,0,0,0.335549,159.828924,-168.829529)"/>
<path style="fill-rule:nonzero;fill:rgb(0%,0%,0%);fill-opacity:1;stroke-width:1.881482;stroke-linecap:butt;stroke-linejoin:miter;stroke:rgb(0%,0%,0%);stroke-opacity:1;stroke-miterlimit:4;" d="M 27.167189 1632.986038 L 10.402742 1605.558965 L -7.338276 1605.558965 L -7.338276 1632.986038 L -22.463481 1632.986038 L -22.463481 1560.751323 L 13.634722 1560.751323 C 18.145545 1560.751323 22.075075 1561.263544 25.423315 1562.287985 C 28.806431 1563.277501 31.631508 1564.721031 33.886919 1566.595292 C 36.14233 1568.446271 37.81645 1570.704697 38.909278 1573.370571 C 40.036984 1576.001521 40.595023 1578.970071 40.595023 1582.287862 C 40.595023 1584.988661 40.188119 1587.468273 39.374311 1589.715058 C 38.583755 1591.93856 37.467675 1593.929234 36.037698 1595.663799 C 34.630972 1597.410005 32.956853 1598.876818 31.015339 1600.075879 C 29.0622 1601.240016 26.946298 1602.089836 24.65601 1602.636981 L 44.187405 1632.986038 L 27.167189 1632.986038 M 25.376811 1582.904855 C 25.376811 1579.377519 24.214228 1576.769852 21.889062 1575.05857 C 19.598774 1573.347288 16.320289 1572.497468 12.041984 1572.497468 L -7.338276 1572.497468 L -7.338276 1593.824462 L 12.448888 1593.824462 C 14.704299 1593.824462 16.634187 1593.568352 18.250177 1593.056132 C 19.889419 1592.508987 21.214764 1591.752298 22.249463 1590.797705 C 23.307413 1589.808189 24.086344 1588.644051 24.609506 1587.305294 C 25.121043 1585.978177 25.376811 1584.511364 25.376811 1582.904855 " transform="matrix(0.335998,0,0,0.335549,159.828924,-168.829529)"/>
<path style="fill-rule:nonzero;fill:rgb(0%,0%,0%);fill-opacity:1;stroke-width:1.881482;stroke-linecap:butt;stroke-linejoin:miter;stroke:rgb(0%,0%,0%);stroke-opacity:1;stroke-miterlimit:4;" d="M 83.122311 1634.022121 C 78.611489 1634.022121 74.472693 1633.486617 70.71755 1632.427253 C 66.950781 1631.332964 63.707174 1629.656606 60.975104 1627.39818 C 58.277912 1625.116471 56.150385 1622.194486 54.615775 1618.632226 C 53.116043 1615.081608 52.360364 1610.844148 52.360364 1605.919848 L 52.360364 1560.751323 L 67.485569 1560.751323 L 67.485569 1604.744069 C 67.485569 1607.782467 67.857596 1610.413418 68.613275 1612.63692 C 69.368954 1614.825498 70.43853 1616.641552 71.845256 1618.073441 C 73.240355 1619.470405 74.937727 1620.518129 76.914118 1621.20497 C 78.902135 1621.845245 81.099417 1622.171204 83.529215 1622.171204 C 85.993891 1622.171204 88.249303 1621.833604 90.295449 1621.146763 C 92.388098 1620.424998 94.16685 1619.34235 95.631705 1617.863896 C 97.131437 1616.397083 98.29402 1614.534463 99.119454 1612.276037 C 99.933262 1610.017611 100.351792 1607.340095 100.351792 1604.231849 L 100.351792 1560.751323 L 115.476998 1560.751323 L 115.476998 1605.151517 C 115.476998 1610.110742 114.674815 1614.394767 113.058825 1618.015234 C 111.45446 1621.647342 109.222301 1624.650816 106.350721 1627.048939 C 103.479141 1629.400496 100.061146 1631.158343 96.096738 1632.32248 C 92.167207 1633.451693 87.842399 1634.022121 83.122311 1634.022121 " transform="matrix(0.335998,0,0,0.335549,159.828924,-168.829529)"/>
<path style="fill-rule:nonzero;fill:rgb(0%,0%,0%);fill-opacity:1;stroke-width:1.881482;stroke-linecap:butt;stroke-linejoin:miter;stroke:rgb(0%,0%,0%);stroke-opacity:1;stroke-miterlimit:4;" d="M 162.352346 1622.124638 C 165.189049 1622.124638 167.630473 1621.728831 169.688245 1620.937218 C 171.769269 1620.122322 173.559647 1619.062957 175.071005 1617.759124 C 176.605614 1616.466931 177.87283 1615.000118 178.861025 1613.358685 C 179.884099 1611.717251 180.721158 1610.052535 181.372205 1608.387819 L 194.544271 1613.358685 C 193.48632 1615.954711 192.102846 1618.504171 190.393849 1620.995425 C 188.684852 1623.486679 186.545699 1625.698539 183.988017 1627.607724 C 181.418708 1629.51691 178.361115 1631.076853 174.815236 1632.275915 C 171.29261 1633.440052 167.142188 1634.022121 162.352346 1634.022121 C 156.097649 1634.022121 150.680012 1633.090811 146.099435 1631.251474 C 141.518858 1629.365572 137.728837 1626.769546 134.717747 1623.451755 C 131.741534 1620.110681 129.521001 1616.140973 128.056146 1611.565913 C 126.614543 1606.979213 125.893742 1601.973423 125.893742 1596.536902 C 125.893742 1590.902478 126.614543 1585.803557 128.056146 1581.263421 C 129.521001 1576.711645 131.729909 1572.846709 134.671244 1569.668615 C 137.600953 1566.455596 141.309593 1563.999266 145.797164 1562.287985 C 150.307986 1560.55342 155.597739 1559.680317 161.689674 1559.680317 C 166.398135 1559.680317 170.525305 1560.169255 174.036306 1561.158771 C 177.59381 1562.148288 180.651403 1563.556894 183.220712 1565.361307 C 185.813272 1567.142437 187.952425 1569.261167 189.626544 1571.729138 C 191.335542 1574.150543 192.672512 1576.8397 193.62583 1579.773326 L 180.291003 1583.417075 C 179.814344 1581.880414 179.081916 1580.40196 178.093721 1579.004995 C 177.105525 1577.573106 175.83831 1576.304197 174.292074 1575.209908 C 172.792342 1574.115619 171.01359 1573.242516 168.967444 1572.590599 C 166.909672 1571.915399 164.584506 1571.566158 161.991945 1571.566158 C 158.329809 1571.566158 155.190835 1572.17151 152.563397 1573.370571 C 149.924333 1574.523067 147.761929 1576.199424 146.052932 1578.388002 C 144.378812 1580.57658 143.123223 1583.207531 142.309414 1586.280853 C 141.518858 1589.330892 141.12358 1592.741814 141.12358 1596.536902 C 141.12358 1600.297065 141.518858 1603.754553 142.309414 1606.897723 C 143.123223 1610.00597 144.390438 1612.683485 146.099435 1614.941911 C 147.808432 1617.200338 149.994088 1618.958185 152.656404 1620.227094 C 155.365222 1621.484363 158.597203 1622.124638 162.352346 1622.124638 " transform="matrix(0.335998,0,0,0.335549,159.828924,-168.829529)"/>
<path style="fill-rule:nonzero;fill:rgb(0%,0%,0%);fill-opacity:1;stroke-width:1.881482;stroke-linecap:butt;stroke-linejoin:miter;stroke:rgb(0%,0%,0%);stroke-opacity:1;stroke-miterlimit:4;" d="M 236.757661 1572.439261 L 236.757661 1632.986038 L 221.632456 1632.986038 L 221.632456 1572.439261 L 198.31104 1572.439261 L 198.31104 1560.751323 L 260.137206 1560.751323 L 260.137206 1572.439261 L 236.757661 1572.439261 " transform="matrix(0.335998,0,0,0.335549,159.828924,-168.829529)"/>
<path style="fill-rule:nonzero;fill:rgb(0%,0%,0%);fill-opacity:1;stroke-width:1.881482;stroke-linecap:butt;stroke-linejoin:miter;stroke:rgb(0%,0%,0%);stroke-opacity:1;stroke-miterlimit:4;" d="M 268.007894 1632.986038 L 268.007894 1560.751323 L 283.133099 1560.751323 L 283.133099 1632.986038 L 268.007894 1632.986038 " transform="matrix(0.335998,0,0,0.335549,159.828924,-168.829529)"/>
<path style="fill-rule:nonzero;fill:rgb(0%,0%,0%);fill-opacity:1;stroke-width:1.881482;stroke-linecap:butt;stroke-linejoin:miter;stroke:rgb(0%,0%,0%);stroke-opacity:1;stroke-miterlimit:4;" d="M 367.025092 1596.536902 C 367.025092 1602.182967 366.188032 1607.305171 364.513913 1611.915155 C 362.839793 1616.536779 360.433246 1620.483205 357.282646 1623.766072 C 354.143672 1627.048939 350.295522 1629.575116 345.749822 1631.356246 C 341.239 1633.125735 336.123635 1634.022121 330.415352 1634.022121 C 324.36992 1634.022121 319.068541 1633.090811 314.522841 1631.251474 C 310.012019 1629.365572 306.233624 1626.769546 303.199283 1623.451755 C 300.153315 1620.110681 297.863026 1616.140973 296.328417 1611.565913 C 294.817059 1606.979213 294.073006 1601.973423 294.073006 1596.536902 C 294.073006 1590.902478 294.851936 1585.803557 296.421423 1581.263421 C 298.037414 1576.711645 300.374206 1572.846709 303.455051 1569.668615 C 306.559148 1566.455596 310.37242 1563.999266 314.883242 1562.287985 C 319.428942 1560.55342 324.637314 1559.680317 330.519984 1559.680317 C 336.402654 1559.680317 341.599401 1560.55342 346.110223 1562.287985 C 350.655923 1564.03419 354.469195 1566.513803 357.538414 1569.726821 C 360.654137 1572.93984 363.01418 1576.816417 364.618545 1581.368194 C 366.22291 1585.873405 367.025092 1590.937402 367.025092 1596.536902 M 351.597615 1596.536902 C 351.597615 1592.741814 351.132582 1589.330892 350.214141 1586.280853 C 349.318952 1583.207531 347.981982 1580.57658 346.214855 1578.388002 C 344.436103 1576.199424 342.227196 1574.523067 339.599758 1573.370571 C 336.995572 1572.17151 333.972856 1571.566158 330.519984 1571.566158 C 326.997358 1571.566158 323.904887 1572.17151 321.242571 1573.370571 C 318.615134 1574.523067 316.406226 1576.199424 314.627474 1578.388002 C 312.848722 1580.57658 311.511751 1583.207531 310.628188 1586.280853 C 309.744625 1589.330892 309.291218 1592.741814 309.291218 1596.536902 C 309.291218 1600.297065 309.744625 1603.754553 310.628188 1606.897723 C 311.546629 1610.00597 312.906851 1612.683485 314.673977 1614.941911 C 316.452729 1617.200338 318.661637 1618.958185 321.289075 1620.227094 C 323.928138 1621.484363 326.96248 1622.124638 330.415352 1622.124638 C 334.112366 1622.124638 337.286218 1621.484363 339.960159 1620.227094 C 342.622474 1618.923261 344.80813 1617.153772 346.517127 1614.895346 C 348.261002 1612.601996 349.539843 1609.901197 350.365277 1606.792951 C 351.179085 1603.64978 351.597615 1600.227217 351.597615 1596.536902 " transform="matrix(0.335998,0,0,0.335549,159.828924,-168.829529)"/>
<path style="fill-rule:nonzero;fill:rgb(0%,0%,0%);fill-opacity:1;stroke-width:1.881482;stroke-linecap:butt;stroke-linejoin:miter;stroke:rgb(0%,0%,0%);stroke-opacity:1;stroke-miterlimit:4;" d="M 422.061774 1632.986038 L 390.579025 1577.363562 C 390.741786 1578.865299 390.904548 1580.367036 391.032432 1581.880414 C 391.171942 1583.172606 391.276574 1584.581213 391.346329 1586.08295 C 391.450962 1587.584687 391.497465 1589.016575 391.497465 1590.390257 L 391.497465 1632.986038 L 378.069631 1632.986038 L 378.069631 1560.751323 L 395.345615 1560.751323 L 427.281771 1616.839455 C 427.11901 1615.407566 426.956248 1613.905829 426.828364 1612.334244 C 426.688854 1610.995486 426.572596 1609.493749 426.467963 1607.817392 C 426.398208 1606.141034 426.363331 1604.453035 426.363331 1602.741753 L 426.363331 1560.751323 L 439.791165 1560.751323 L 439.791165 1632.986038 L 422.061774 1632.986038 " transform="matrix(0.335998,0,0,0.335549,159.828924,-168.829529)"/>
<path style=" stroke:none;fill-rule:evenodd;fill:rgb(100%,0%,0%);fill-opacity:1;" d="M 17.210938 294.542969 C 4.722656 293.523438 -3.78125 279.027344 1.691406 267.691406 C 24.324219 228.449219 127.621094 51.226562 152.4375 7.757812 C 159.570312 -2.53125 176.390625 -2.640625 183.484375 7.761719 C 206.195312 46.957031 309.058594 224.027344 334.34375 267.226562 C 339.703125 278.535156 331.738281 293.941406 319.167969 294.878906 C 273.824219 294.925781 67.3125 294.273438 17.210938 294.542969 Z M 17.210938 294.542969 "/>
<path style=" stroke:none;fill-rule:evenodd;fill:rgb(100%,73.333335%,0%);fill-opacity:1;" d="M 50.6875 260.335938 L 288.664062 259.648438 L 169.0625 49.828125 Z M 50.6875 260.335938 "/>
<path style=" stroke:none;fill-rule:evenodd;fill:rgb(0%,0%,0%);fill-opacity:1;" d="M 171.972656 128.589844 C 164.703125 128.777344 161.441406 135.21875 161.191406 139.738281 C 161.144531 140.535156 161.707031 142.074219 162.613281 142.980469 C 163.066406 143.433594 163.757812 144.5 164.371094 144.699219 C 164.984375 144.898438 165.820312 145.820312 166.25 146.167969 C 167.105469 146.859375 167.4375 146.84375 167.890625 147.722656 C 168.347656 148.601562 168.484375 151.023438 169.335938 152.0625 C 169.75 152.574219 170.707031 151.355469 171.394531 151.882812 C 173.167969 153.238281 172.582031 152.425781 173.039062 152.9375 C 173.945312 153.957031 173.796875 153.648438 175.050781 153.933594 C 177.320312 154.152344 177.894531 151.214844 180.234375 150.546875 C 180.679688 150.96875 180.949219 151.425781 181.125 151.902344 C 180.988281 154.6875 179.964844 158.222656 181.125 159.753906 C 183.324219 170.90625 182.09375 167.183594 183.101562 174.296875 C 177.75 175.457031 173.878906 177.691406 168.792969 174.988281 C 164.753906 172.84375 165.097656 169.621094 160.277344 172.503906 C 159.414062 173.023438 157.632812 173.46875 158.503906 174.628906 C 159.894531 174.789062 163.808594 174.199219 163.828125 176.761719 C 158.578125 176.78125 157.003906 175.921875 151.050781 176.050781 C 150.40625 176.707031 150.992188 178.589844 149.988281 178.886719 C 142.972656 179.632812 141.183594 175.15625 137.210938 172.863281 C 137.441406 170.382812 136.746094 166.957031 137.570312 165.0625 C 138.46875 166.527344 138.308594 169.054688 139.34375 170.382812 C 141.265625 170.761719 141.457031 169.417969 143.246094 169.671875 C 140.464844 156 137.621094 141.566406 133.667969 129.632812 C 132.945312 129.167969 131.3125 130.167969 130.117188 130.34375 C 133.144531 143.015625 135.222656 156.441406 134.730469 172.152344 C 133.832031 175.035156 130.074219 175.070312 129.757812 178.535156 C 122.660156 178.300781 128.417969 178.730469 121.308594 178.476562 L 121.308594 184.148438 L 126.671875 184.148438 C 126.664062 204.464844 126.425781 232.03125 126.660156 252.941406 C 128.390625 252.777344 130.628906 252.941406 132.386719 252.941406 C 132.386719 235.191406 132.386719 203.195312 132.59375 184.554688 L 173.757812 184.554688 C 175.222656 184.835938 174.421875 182.855469 175.886719 183.132812 C 178.75 184.761719 183.761719 184.25 186.175781 186.328125 L 186.175781 189.164062 C 177.710938 191.730469 169.367188 194.992188 161.691406 198.378906 C 159.394531 199.390625 155.375 200.683594 154.242188 202.273438 C 152.699219 204.4375 153.605469 207.027344 153.175781 210.066406 C 151.042969 218.523438 143.417969 238.027344 143.417969 238.027344 L 144.925781 238.824219 L 146.4375 239.621094 C 146.4375 239.621094 142.894531 242.679688 139.429688 243.839844 C 136.3125 244.878906 132.910156 247.789062 135.414062 247.960938 C 140.191406 248.296875 146.238281 248.242188 150.773438 246.492188 C 151.265625 247.417969 150.363281 247.5625 151.382812 247.960938 C 152.402344 248.359375 156.320312 248.003906 157.78125 247.960938 C 158.507812 244.917969 157.34375 243.84375 157.441406 241.25 C 157.566406 237.890625 159.679688 234.238281 160.628906 230.621094 C 161.621094 226.847656 162.425781 223.238281 163.828125 219.992188 L 163.496094 218.257812 C 164.816406 224.757812 165.992188 231.289062 167.1875 237.808594 C 169.566406 238.605469 171.808594 238.148438 174.207031 239.164062 C 174.25 240.164062 174.957031 241.050781 174.917969 242.066406 C 170.804688 247.84375 167.769531 248.597656 167.769531 248.597656 C 170.804688 247.847656 166.136719 248.84375 166.355469 250.890625 C 166.570312 252.941406 173.84375 250.179688 173.84375 250.179688 C 175.183594 248.824219 176.679688 248.960938 178.003906 247.480469 C 178.597656 248.738281 178.300781 248.492188 179.226562 248.257812 C 180.152344 248.019531 182.304688 247.789062 183.054688 247.394531 C 183.453125 243.253906 182.804688 241.046875 181.203125 237.617188 L 182.207031 237.601562 C 179.433594 228.535156 176.605469 219.183594 174.441406 209.773438 C 174.441406 209.773438 188.398438 208.726562 192.554688 209.535156 C 192.078125 216.503906 192.554688 226.226562 192.554688 233.808594 C 192.152344 241.136719 192.726562 246.0625 189.175781 246.484375 C 186.179688 246.835938 179.027344 249.304688 176.253906 249.992188 C 176.355469 251.191406 176.429688 251.429688 176.21875 252.941406 L 179.644531 252.941406 C 180.640625 252.941406 180.480469 251.925781 181.371094 250.757812 C 183.441406 249.90625 190.832031 249.253906 194.386719 249.023438 C 200.113281 248.101562 206.007812 249.855469 214.75 250.777344 C 215.695312 251.074219 216.460938 252.941406 216.460938 252.941406 L 220.039062 252.902344 C 220.039062 252.902344 220.308594 251.402344 220.210938 250.027344 C 214.207031 248.347656 206.558594 248.320312 200.703125 246.492188 C 197.007812 246.484375 197 244.070312 197 234.488281 L 197 223.578125 C 197.222656 219.3125 197.003906 214.339844 197.179688 210.066406 C 200.933594 210.035156 205.394531 211.472656 208.183594 209.71875 C 211.992188 207.316406 211.53125 206.789062 212.320312 201.023438 C 213.113281 195.257812 214.308594 183.257812 214.921875 177.464844 C 215.136719 175.445312 216.332031 166.128906 216.621094 163.933594 C 216.28125 163.886719 215.925781 163.78125 215.273438 163.648438 C 213.511719 173.21875 212.640625 185.984375 211.257812 195.988281 C 210.453125 201.8125 209.867188 208.691406 203.917969 207.234375 C 208.136719 202.714844 209.90625 194.355469 209.253906 185.492188 C 209.960938 177.230469 208.171875 173.332031 206.730469 164.324219 C 206.234375 161.214844 201.011719 152.875 199.351562 150.898438 C 198.382812 149.738281 193.960938 146.328125 192.128906 144.945312 L 192.335938 144.679688 C 189.726562 143.902344 187.632812 142.703125 185.453125 141.75 C 184.550781 135.503906 180.082031 131.457031 176.4375 129.175781 C 174.808594 128.730469 173.320312 128.554688 171.972656 128.589844 Z M 171.972656 128.589844 "/>
</g>
</svg>
