<?xml version="1.0" encoding="utf-8" ?>
<svg xmlns="http://www.w3.org/2000/svg" xmlns:ev="http://www.w3.org/2001/xml-events" xmlns:xlink="http://www.w3.org/1999/xlink" baseProfile="full" height="46px" version="1.1" viewBox="0 0 44 46" width="44px">
  <defs/>
  <g id="x4aaaff_r74_g170_b255_a1.0">
    <path d="M 1,8 2,8 2,7 42,7 42,8 43,8 43,38 42,38 42,39 27,39 2,39 2,38 1,38 z M 39,10 5,10 5,36 9,36 9,35 10,35 10,34 11,34 11,33 12,33 12,32 14,32 14,31 16,31 16,30 20,30 20,29 24,29 24,30 28,30 28,31 31,31 31,32 32,32 32,33 33,33 33,34 34,34 34,35 35,35 35,36 39,36 39,24 39,22 z" fill="#4aaaff" fill-opacity="1.0" id="x4aaaff_r74_g170_b255_a1.0_shape1"/>
    <path d="M 19,25 19,24 17,24 17,22 16,22 16,16 17,16 17,14 18,14 18,13 26,13 26,14 27,14 27,16 28,16 28,22 27,22 27,24 25,24 25,25 z" fill="#4aaaff" fill-opacity="1.0" id="x4aaaff_r74_g170_b255_a1.0_shape2"/>
    <path d="M 5,4 5,1 39,1 39,4 z" fill="#4aaaff" fill-opacity="1.0" id="x4aaaff_r74_g170_b255_a1.0_shape3"/>
    <path d="M 39,42 39,45 14,45 5,45 5,42 8,42 z" fill="#4aaaff" fill-opacity="1.0" id="x4aaaff_r74_g170_b255_a1.0_shape4"/>
  </g>
  <g id="xf9f9f9_r249_g249_b249_a1.0">
    <path d="M 5,10 39,10 39,36 35,36 35,35 34,35 34,34 33,34 33,33 32,33 32,32 31,32 31,31 28,31 28,30 24,30 24,29 20,29 20,30 16,30 16,31 14,31 14,32 12,32 12,33 11,33 11,34 10,34 10,35 9,35 9,36 5,36 z M 16,16 16,22 17,22 17,24 19,24 19,25 25,25 25,24 26,24 27,24 27,22 28,22 28,16 27,16 27,14 26,14 26,13 22,13 18,13 18,14 17,14 17,16 z" fill="#f9f9f9" fill-opacity="1.0" id="xf9f9f9_r249_g249_b249_a1.0_shape1"/>
  </g>
  <g id="x04143b_r4_g20_b59_a1.0">
    <path d="M 0,46 0,0 44,0 44,46 z M 43,1 1,1 1,45 43,45 z" fill="#04143b" fill-opacity="1.0" id="x04143b_r4_g20_b59_a1.0_shape1"/>
  </g>
</svg>
