<?xml version="1.0" encoding="utf-8" ?>
<svg xmlns="http://www.w3.org/2000/svg" xmlns:ev="http://www.w3.org/2001/xml-events" xmlns:xlink="http://www.w3.org/1999/xlink" baseProfile="full" height="80px" version="1.1" viewBox="0 0 80 80" width="80px">
  <defs/>
  <g id="x57b9ff_r87_g185_b255_a1.0">
    <path d="M 46,48 46,49 45,49 45,50 44,50 44,51 43,51 43,52 42,52 42,53 41,53 41,54 40,54 40,53 39,53 38,53 38,52 37,52 37,51 36,51 36,50 35,50 35,49 34,49 34,48 33,48 33,47 32,47 32,46 31,46 31,45 30,45 30,44 29,44 29,43 28,43 28,42 27,42 27,41 26,41 26,40 25,40 25,39 24,39 24,38 23,38 23,37 22,37 22,36 22,35 21,35 21,34 22,34 22,33 23,33 30,33 30,32 31,32 31,10 32,10 32,9 49,9 49,10 50,10 50,32 51,32 51,33 59,33 59,34 60,34 60,35 59,35 59,36 58,36 58,37 57,37 57,38 56,38 56,39 55,39 55,40 54,40 54,41 53,41 53,42 52,42 52,43 51,43 51,44 50,44 50,45 49,45 49,46 48,46 48,47 47,47 47,48 z" fill="#57b9ff" fill-opacity="1.0" id="x57b9ff_r87_g185_b255_a1.0_shape1"/>
    <path d="M 16,72 16,71 15,71 15,70 16,70 16,69 65,69 65,70 66,70 66,71 65,71 65,72 56,72 z" fill="#57b9ff" fill-opacity="1.0" id="x57b9ff_r87_g185_b255_a1.0_shape2"/>
  </g>
  <g id="x000000_r0_g0_b0_a1.0">
    <path d="M 44,58 37,58 37,57 35,57 35,56 34,56 34,55 33,55 33,54 32,54 32,53 31,53 31,52 30,52 30,51 29,51 29,50 28,50 28,49 27,49 27,48 26,48 26,47 25,47 25,46 24,46 24,45 23,45 23,44 22,44 22,43 21,43 21,42 20,42 20,41 19,41 19,40 18,40 18,38 17,38 17,31 18,31 18,30 19,30 19,29 24,29 27,29 27,21 27,18 27,7 28,7 28,6 29,6 29,5 38,5 52,5 52,6 53,6 53,7 54,7 54,23 54,29 62,29 62,30 63,30 63,31 64,31 64,38 63,38 63,39 62,39 62,40 61,40 61,41 60,41 60,42 59,42 59,43 58,43 58,44 57,44 57,45 56,45 56,46 55,46 55,47 54,47 54,48 53,48 53,49 52,49 52,50 51,50 51,51 50,51 50,52 49,52 49,53 48,53 48,54 47,54 47,55 46,55 46,56 45,56 45,57 44,57 z M 32,8 32,9 31,9 31,10 30,10 30,32 22,32 22,33 21,33 21,34 20,34 20,35 21,35 21,37 22,37 22,38 23,38 23,39 24,39 24,40 25,40 25,41 26,41 26,42 27,42 27,43 28,43 28,44 29,44 29,45 30,45 30,46 31,46 31,47 32,47 32,48 33,48 33,49 34,49 34,50 35,50 35,51 36,51 36,52 37,52 37,53 38,53 38,54 40,54 40,55 41,55 41,54 42,54 42,53 43,53 43,52 44,52 44,51 45,51 45,50 46,50 46,49 47,49 47,48 48,48 48,47 49,47 49,46 50,46 50,45 51,45 51,44 52,44 52,43 53,43 53,42 54,42 54,41 55,41 55,40 56,40 56,39 57,39 57,38 58,38 58,37 59,37 59,36 60,36 60,35 61,35 61,34 60,34 60,33 59,33 59,32 51,32 51,10 50,10 50,9 49,9 49,8 z" fill="#000000" fill-opacity="1.0" id="x000000_r0_g0_b0_a1.0_shape1"/>
    <path d="M 68,65 68,66 69,66 69,67 70,67 70,74 69,74 69,75 68,75 68,76 13,76 13,75 12,75 12,74 11,74 11,67 12,67 12,66 13,66 13,65 z M 58,73 65,73 65,72 66,72 66,71 67,71 67,70 66,70 66,69 65,69 65,68 62,68 57,68 16,68 16,69 15,69 15,70 14,70 14,71 15,71 15,72 16,72 16,73 z" fill="#000000" fill-opacity="1.0" id="x000000_r0_g0_b0_a1.0_shape2"/>
  </g>
  <g id="x000000_r0_g0_b0_a0.7176470588235294">
    <path d="M 14,77 14,76 67,76 67,77 z" fill="#000000" fill-opacity="0.7176470588235294" id="x000000_r0_g0_b0_a0.7176470588235294_shape1"/>
    <path d="M 67,64 67,65 21,65 16,65 16,64 22,64 z" fill="#000000" fill-opacity="0.7176470588235294" id="x000000_r0_g0_b0_a0.7176470588235294_shape2"/>
    <path d="M 26,8 27,8 27,28 26,28 z" fill="#000000" fill-opacity="0.7176470588235294" id="x000000_r0_g0_b0_a0.7176470588235294_shape3"/>
    <path d="M 55,28 54,28 54,8 55,8 z" fill="#000000" fill-opacity="0.7176470588235294" id="x000000_r0_g0_b0_a0.7176470588235294_shape4"/>
    <path d="M 32,5 32,4 36,4 51,4 51,5 40,5 z" fill="#000000" fill-opacity="0.7176470588235294" id="x000000_r0_g0_b0_a0.7176470588235294_shape5"/>
    <path d="M 20,29 20,28 26,28 26,29 z" fill="#000000" fill-opacity="0.7176470588235294" id="x000000_r0_g0_b0_a0.7176470588235294_shape6"/>
    <path d="M 61,28 61,29 58,29 55,29 55,28 56,28 z" fill="#000000" fill-opacity="0.7176470588235294" id="x000000_r0_g0_b0_a0.7176470588235294_shape7"/>
    <path d="M 11,73 10,73 10,72 10,68 11,68 11,70 z" fill="#000000" fill-opacity="0.7176470588235294" id="x000000_r0_g0_b0_a0.7176470588235294_shape8"/>
    <path d="M 17,37 16,37 16,36 16,32 17,32 17,34 z" fill="#000000" fill-opacity="0.7176470588235294" id="x000000_r0_g0_b0_a0.7176470588235294_shape9"/>
    <path d="M 38,59 38,58 39,58 43,58 43,59 41,59 z" fill="#000000" fill-opacity="0.7176470588235294" id="x000000_r0_g0_b0_a0.7176470588235294_shape10"/>
    <path d="M 65,36 65,37 64,37 64,36 64,32 65,32 z" fill="#000000" fill-opacity="0.7176470588235294" id="x000000_r0_g0_b0_a0.7176470588235294_shape11"/>
    <path d="M 71,73 70,73 70,72 70,68 71,68 71,70 z" fill="#000000" fill-opacity="0.7176470588235294" id="x000000_r0_g0_b0_a0.7176470588235294_shape12"/>
    <path d="M 17,38 18,38 18,39 17,39 z" fill="#000000" fill-opacity="0.7176470588235294" id="x000000_r0_g0_b0_a0.7176470588235294_shape13"/>
    <path d="M 36,57 37,57 37,58 36,58 z" fill="#000000" fill-opacity="0.7176470588235294" id="x000000_r0_g0_b0_a0.7176470588235294_shape14"/>
  </g>
  <g id="x2e6891_r46_g104_b145_a1.0">
    <path d="M 17,69 17,68 33,68 64,68 64,69 37,69 z" fill="#2e6891" fill-opacity="1.0" id="x2e6891_r46_g104_b145_a1.0_shape1"/>
    <path d="M 17,73 17,72 38,72 64,72 64,73 50,73 z" fill="#2e6891" fill-opacity="1.0" id="x2e6891_r46_g104_b145_a1.0_shape2"/>
    <path d="M 30,11 31,11 31,31 30,31 z" fill="#2e6891" fill-opacity="1.0" id="x2e6891_r46_g104_b145_a1.0_shape3"/>
    <path d="M 50,11 51,11 51,31 50,31 z" fill="#2e6891" fill-opacity="1.0" id="x2e6891_r46_g104_b145_a1.0_shape4"/>
    <path d="M 33,9 33,8 38,8 48,8 48,9 41,9 z" fill="#2e6891" fill-opacity="1.0" id="x2e6891_r46_g104_b145_a1.0_shape5"/>
    <path d="M 23,33 23,32 29,32 29,33 z" fill="#2e6891" fill-opacity="1.0" id="x2e6891_r46_g104_b145_a1.0_shape6"/>
    <path d="M 58,32 58,33 53,33 52,33 52,32 53,32 z" fill="#2e6891" fill-opacity="1.0" id="x2e6891_r46_g104_b145_a1.0_shape7"/>
    <path d="M 22,37 21,37 21,36 22,36 z" fill="#2e6891" fill-opacity="1.0" id="x2e6891_r46_g104_b145_a1.0_shape8"/>
    <path d="M 38,54 38,53 39,53 39,54 z" fill="#2e6891" fill-opacity="1.0" id="x2e6891_r46_g104_b145_a1.0_shape9"/>
  </g>
  <g id="x000000_r0_g0_b0_a0.4392156862745098">
    <path d="M 12,67 11,67 11,66 12,66 z" fill="#000000" fill-opacity="0.4392156862745098" id="x000000_r0_g0_b0_a0.4392156862745098_shape1"/>
    <path d="M 12,74 12,75 11,75 11,74 z" fill="#000000" fill-opacity="0.4392156862745098" id="x000000_r0_g0_b0_a0.4392156862745098_shape2"/>
    <path d="M 12,75 13,75 13,76 12,76 z" fill="#000000" fill-opacity="0.4392156862745098" id="x000000_r0_g0_b0_a0.4392156862745098_shape3"/>
    <path d="M 13,64 14,64 14,65 13,65 z" fill="#000000" fill-opacity="0.4392156862745098" id="x000000_r0_g0_b0_a0.4392156862745098_shape4"/>
    <path d="M 17,31 17,30 18,30 18,31 z" fill="#000000" fill-opacity="0.4392156862745098" id="x000000_r0_g0_b0_a0.4392156862745098_shape5"/>
    <path d="M 19,30 18,30 18,29 19,29 z" fill="#000000" fill-opacity="0.4392156862745098" id="x000000_r0_g0_b0_a0.4392156862745098_shape6"/>
    <path d="M 19,41 18,41 18,40 19,40 z" fill="#000000" fill-opacity="0.4392156862745098" id="x000000_r0_g0_b0_a0.4392156862745098_shape7"/>
    <path d="M 20,41 20,42 19,42 19,41 z" fill="#000000" fill-opacity="0.4392156862745098" id="x000000_r0_g0_b0_a0.4392156862745098_shape8"/>
    <path d="M 21,43 20,43 20,42 21,42 z" fill="#000000" fill-opacity="0.4392156862745098" id="x000000_r0_g0_b0_a0.4392156862745098_shape9"/>
    <path d="M 21,44 21,43 22,43 22,44 z" fill="#000000" fill-opacity="0.4392156862745098" id="x000000_r0_g0_b0_a0.4392156862745098_shape10"/>
    <path d="M 23,45 22,45 22,44 23,44 z" fill="#000000" fill-opacity="0.4392156862745098" id="x000000_r0_g0_b0_a0.4392156862745098_shape11"/>
    <path d="M 24,45 24,46 23,46 23,45 z" fill="#000000" fill-opacity="0.4392156862745098" id="x000000_r0_g0_b0_a0.4392156862745098_shape12"/>
    <path d="M 25,47 24,47 24,46 25,46 z" fill="#000000" fill-opacity="0.4392156862745098" id="x000000_r0_g0_b0_a0.4392156862745098_shape13"/>
    <path d="M 25,48 25,47 26,47 26,48 z" fill="#000000" fill-opacity="0.4392156862745098" id="x000000_r0_g0_b0_a0.4392156862745098_shape14"/>
    <path d="M 27,49 26,49 26,48 27,48 z" fill="#000000" fill-opacity="0.4392156862745098" id="x000000_r0_g0_b0_a0.4392156862745098_shape15"/>
    <path d="M 28,7 27,7 27,6 28,6 z" fill="#000000" fill-opacity="0.4392156862745098" id="x000000_r0_g0_b0_a0.4392156862745098_shape16"/>
    <path d="M 27,49 28,49 28,50 27,50 z" fill="#000000" fill-opacity="0.4392156862745098" id="x000000_r0_g0_b0_a0.4392156862745098_shape17"/>
    <path d="M 29,50 29,51 28,51 28,50 z" fill="#000000" fill-opacity="0.4392156862745098" id="x000000_r0_g0_b0_a0.4392156862745098_shape18"/>
    <path d="M 30,4 30,5 29,5 29,4 z" fill="#000000" fill-opacity="0.4392156862745098" id="x000000_r0_g0_b0_a0.4392156862745098_shape19"/>
    <path d="M 29,52 29,51 30,51 30,52 z" fill="#000000" fill-opacity="0.4392156862745098" id="x000000_r0_g0_b0_a0.4392156862745098_shape20"/>
    <path d="M 31,52 31,53 30,53 30,52 z" fill="#000000" fill-opacity="0.4392156862745098" id="x000000_r0_g0_b0_a0.4392156862745098_shape21"/>
    <path d="M 31,53 32,53 32,54 31,54 z" fill="#000000" fill-opacity="0.4392156862745098" id="x000000_r0_g0_b0_a0.4392156862745098_shape22"/>
    <path d="M 32,55 32,54 33,54 33,55 z" fill="#000000" fill-opacity="0.4392156862745098" id="x000000_r0_g0_b0_a0.4392156862745098_shape23"/>
    <path d="M 34,56 33,56 33,55 34,55 z" fill="#000000" fill-opacity="0.4392156862745098" id="x000000_r0_g0_b0_a0.4392156862745098_shape24"/>
    <path d="M 34,57 34,56 35,56 35,57 z" fill="#000000" fill-opacity="0.4392156862745098" id="x000000_r0_g0_b0_a0.4392156862745098_shape25"/>
    <path d="M 44,58 44,57 45,57 45,58 z" fill="#000000" fill-opacity="0.4392156862745098" id="x000000_r0_g0_b0_a0.4392156862745098_shape26"/>
    <path d="M 45,56 46,56 46,57 45,57 z" fill="#000000" fill-opacity="0.4392156862745098" id="x000000_r0_g0_b0_a0.4392156862745098_shape27"/>
    <path d="M 47,56 46,56 46,55 47,55 z" fill="#000000" fill-opacity="0.4392156862745098" id="x000000_r0_g0_b0_a0.4392156862745098_shape28"/>
    <path d="M 47,54 48,54 48,55 47,55 z" fill="#000000" fill-opacity="0.4392156862745098" id="x000000_r0_g0_b0_a0.4392156862745098_shape29"/>
    <path d="M 49,54 48,54 48,53 49,53 z" fill="#000000" fill-opacity="0.4392156862745098" id="x000000_r0_g0_b0_a0.4392156862745098_shape30"/>
    <path d="M 49,52 50,52 50,53 49,53 z" fill="#000000" fill-opacity="0.4392156862745098" id="x000000_r0_g0_b0_a0.4392156862745098_shape31"/>
    <path d="M 51,51 51,52 50,52 50,51 z" fill="#000000" fill-opacity="0.4392156862745098" id="x000000_r0_g0_b0_a0.4392156862745098_shape32"/>
    <path d="M 52,50 52,51 51,51 51,50 z" fill="#000000" fill-opacity="0.4392156862745098" id="x000000_r0_g0_b0_a0.4392156862745098_shape33"/>
    <path d="M 52,5 53,5 53,6 52,6 z" fill="#000000" fill-opacity="0.4392156862745098" id="x000000_r0_g0_b0_a0.4392156862745098_shape34"/>
    <path d="M 53,49 53,50 52,50 52,49 z" fill="#000000" fill-opacity="0.4392156862745098" id="x000000_r0_g0_b0_a0.4392156862745098_shape35"/>
    <path d="M 53,6 54,6 54,7 53,7 z" fill="#000000" fill-opacity="0.4392156862745098" id="x000000_r0_g0_b0_a0.4392156862745098_shape36"/>
    <path d="M 53,48 54,48 54,49 53,49 z" fill="#000000" fill-opacity="0.4392156862745098" id="x000000_r0_g0_b0_a0.4392156862745098_shape37"/>
    <path d="M 54,48 54,47 55,47 55,48 z" fill="#000000" fill-opacity="0.4392156862745098" id="x000000_r0_g0_b0_a0.4392156862745098_shape38"/>
    <path d="M 56,46 56,47 55,47 55,46 z" fill="#000000" fill-opacity="0.4392156862745098" id="x000000_r0_g0_b0_a0.4392156862745098_shape39"/>
    <path d="M 57,45 57,46 56,46 56,45 z" fill="#000000" fill-opacity="0.4392156862745098" id="x000000_r0_g0_b0_a0.4392156862745098_shape40"/>
    <path d="M 58,44 58,45 57,45 57,44 z" fill="#000000" fill-opacity="0.4392156862745098" id="x000000_r0_g0_b0_a0.4392156862745098_shape41"/>
    <path d="M 58,43 59,43 59,44 58,44 z" fill="#000000" fill-opacity="0.4392156862745098" id="x000000_r0_g0_b0_a0.4392156862745098_shape42"/>
    <path d="M 59,42 60,42 60,43 59,43 z" fill="#000000" fill-opacity="0.4392156862745098" id="x000000_r0_g0_b0_a0.4392156862745098_shape43"/>
    <path d="M 61,41 61,42 60,42 60,41 z" fill="#000000" fill-opacity="0.4392156862745098" id="x000000_r0_g0_b0_a0.4392156862745098_shape44"/>
    <path d="M 62,40 62,41 61,41 61,40 z" fill="#000000" fill-opacity="0.4392156862745098" id="x000000_r0_g0_b0_a0.4392156862745098_shape45"/>
    <path d="M 63,30 62,30 62,29 63,29 z" fill="#000000" fill-opacity="0.4392156862745098" id="x000000_r0_g0_b0_a0.4392156862745098_shape46"/>
    <path d="M 63,40 62,40 62,39 63,39 z" fill="#000000" fill-opacity="0.4392156862745098" id="x000000_r0_g0_b0_a0.4392156862745098_shape47"/>
    <path d="M 64,30 64,31 63,31 63,30 z" fill="#000000" fill-opacity="0.4392156862745098" id="x000000_r0_g0_b0_a0.4392156862745098_shape48"/>
    <path d="M 64,38 64,39 63,39 63,38 z" fill="#000000" fill-opacity="0.4392156862745098" id="x000000_r0_g0_b0_a0.4392156862745098_shape49"/>
    <path d="M 69,65 69,66 68,66 68,65 z" fill="#000000" fill-opacity="0.4392156862745098" id="x000000_r0_g0_b0_a0.4392156862745098_shape50"/>
    <path d="M 68,76 68,75 69,75 69,76 z" fill="#000000" fill-opacity="0.4392156862745098" id="x000000_r0_g0_b0_a0.4392156862745098_shape51"/>
    <path d="M 69,66 70,66 70,67 69,67 z" fill="#000000" fill-opacity="0.4392156862745098" id="x000000_r0_g0_b0_a0.4392156862745098_shape52"/>
    <path d="M 70,74 70,75 69,75 69,74 z" fill="#000000" fill-opacity="0.4392156862745098" id="x000000_r0_g0_b0_a0.4392156862745098_shape53"/>
  </g>
  <g id="x428fc6_r66_g143_b198_a1.0">
    <path d="M 16,69 16,70 15,70 15,69 z" fill="#428fc6" fill-opacity="1.0" id="x428fc6_r66_g143_b198_a1.0_shape1"/>
    <path d="M 15,71 16,71 16,72 15,72 z" fill="#428fc6" fill-opacity="1.0" id="x428fc6_r66_g143_b198_a1.0_shape2"/>
    <path d="M 22,33 22,34 21,34 21,33 z" fill="#428fc6" fill-opacity="1.0" id="x428fc6_r66_g143_b198_a1.0_shape3"/>
    <path d="M 23,37 23,38 22,38 22,37 z" fill="#428fc6" fill-opacity="1.0" id="x428fc6_r66_g143_b198_a1.0_shape4"/>
    <path d="M 24,38 24,39 23,39 23,38 z" fill="#428fc6" fill-opacity="1.0" id="x428fc6_r66_g143_b198_a1.0_shape5"/>
    <path d="M 25,40 24,40 24,39 25,39 z" fill="#428fc6" fill-opacity="1.0" id="x428fc6_r66_g143_b198_a1.0_shape6"/>
    <path d="M 25,40 26,40 26,41 25,41 z" fill="#428fc6" fill-opacity="1.0" id="x428fc6_r66_g143_b198_a1.0_shape7"/>
    <path d="M 26,41 27,41 27,42 26,42 z" fill="#428fc6" fill-opacity="1.0" id="x428fc6_r66_g143_b198_a1.0_shape8"/>
    <path d="M 27,42 28,42 28,43 27,43 z" fill="#428fc6" fill-opacity="1.0" id="x428fc6_r66_g143_b198_a1.0_shape9"/>
    <path d="M 28,44 28,43 29,43 29,44 z" fill="#428fc6" fill-opacity="1.0" id="x428fc6_r66_g143_b198_a1.0_shape10"/>
    <path d="M 30,45 29,45 29,44 30,44 z" fill="#428fc6" fill-opacity="1.0" id="x428fc6_r66_g143_b198_a1.0_shape11"/>
    <path d="M 31,45 31,46 30,46 30,45 z" fill="#428fc6" fill-opacity="1.0" id="x428fc6_r66_g143_b198_a1.0_shape12"/>
    <path d="M 31,9 32,9 32,10 31,10 z" fill="#428fc6" fill-opacity="1.0" id="x428fc6_r66_g143_b198_a1.0_shape13"/>
    <path d="M 31,46 32,46 32,47 31,47 z" fill="#428fc6" fill-opacity="1.0" id="x428fc6_r66_g143_b198_a1.0_shape14"/>
    <path d="M 32,48 32,47 33,47 33,48 z" fill="#428fc6" fill-opacity="1.0" id="x428fc6_r66_g143_b198_a1.0_shape15"/>
    <path d="M 33,49 33,48 34,48 34,49 z" fill="#428fc6" fill-opacity="1.0" id="x428fc6_r66_g143_b198_a1.0_shape16"/>
    <path d="M 34,50 34,49 35,49 35,50 z" fill="#428fc6" fill-opacity="1.0" id="x428fc6_r66_g143_b198_a1.0_shape17"/>
    <path d="M 36,51 35,51 35,50 36,50 z" fill="#428fc6" fill-opacity="1.0" id="x428fc6_r66_g143_b198_a1.0_shape18"/>
    <path d="M 37,52 36,52 36,51 37,51 z" fill="#428fc6" fill-opacity="1.0" id="x428fc6_r66_g143_b198_a1.0_shape19"/>
    <path d="M 38,52 38,53 37,53 37,52 z" fill="#428fc6" fill-opacity="1.0" id="x428fc6_r66_g143_b198_a1.0_shape20"/>
    <path d="M 41,53 42,53 42,54 41,54 z" fill="#428fc6" fill-opacity="1.0" id="x428fc6_r66_g143_b198_a1.0_shape21"/>
    <path d="M 42,53 42,52 43,52 43,53 z" fill="#428fc6" fill-opacity="1.0" id="x428fc6_r66_g143_b198_a1.0_shape22"/>
    <path d="M 44,51 44,52 43,52 43,51 z" fill="#428fc6" fill-opacity="1.0" id="x428fc6_r66_g143_b198_a1.0_shape23"/>
    <path d="M 44,50 45,50 45,51 44,51 z" fill="#428fc6" fill-opacity="1.0" id="x428fc6_r66_g143_b198_a1.0_shape24"/>
    <path d="M 46,49 46,50 45,50 45,49 z" fill="#428fc6" fill-opacity="1.0" id="x428fc6_r66_g143_b198_a1.0_shape25"/>
    <path d="M 47,49 46,49 46,48 47,48 z" fill="#428fc6" fill-opacity="1.0" id="x428fc6_r66_g143_b198_a1.0_shape26"/>
    <path d="M 47,47 48,47 48,48 47,48 z" fill="#428fc6" fill-opacity="1.0" id="x428fc6_r66_g143_b198_a1.0_shape27"/>
    <path d="M 48,46 49,46 49,47 48,47 z" fill="#428fc6" fill-opacity="1.0" id="x428fc6_r66_g143_b198_a1.0_shape28"/>
    <path d="M 50,10 49,10 49,9 50,9 z" fill="#428fc6" fill-opacity="1.0" id="x428fc6_r66_g143_b198_a1.0_shape29"/>
    <path d="M 50,45 50,46 49,46 49,45 z" fill="#428fc6" fill-opacity="1.0" id="x428fc6_r66_g143_b198_a1.0_shape30"/>
    <path d="M 50,44 51,44 51,45 50,45 z" fill="#428fc6" fill-opacity="1.0" id="x428fc6_r66_g143_b198_a1.0_shape31"/>
    <path d="M 52,43 52,44 51,44 51,43 z" fill="#428fc6" fill-opacity="1.0" id="x428fc6_r66_g143_b198_a1.0_shape32"/>
    <path d="M 53,43 52,43 52,42 53,42 z" fill="#428fc6" fill-opacity="1.0" id="x428fc6_r66_g143_b198_a1.0_shape33"/>
    <path d="M 54,42 53,42 53,41 54,41 z" fill="#428fc6" fill-opacity="1.0" id="x428fc6_r66_g143_b198_a1.0_shape34"/>
    <path d="M 55,41 54,41 54,40 55,40 z" fill="#428fc6" fill-opacity="1.0" id="x428fc6_r66_g143_b198_a1.0_shape35"/>
    <path d="M 56,40 55,40 55,39 56,39 z" fill="#428fc6" fill-opacity="1.0" id="x428fc6_r66_g143_b198_a1.0_shape36"/>
    <path d="M 57,38 57,39 56,39 56,38 z" fill="#428fc6" fill-opacity="1.0" id="x428fc6_r66_g143_b198_a1.0_shape37"/>
    <path d="M 58,37 58,38 57,38 57,37 z" fill="#428fc6" fill-opacity="1.0" id="x428fc6_r66_g143_b198_a1.0_shape38"/>
    <path d="M 59,37 58,37 58,36 59,36 z" fill="#428fc6" fill-opacity="1.0" id="x428fc6_r66_g143_b198_a1.0_shape39"/>
    <path d="M 59,33 60,33 60,34 59,34 z" fill="#428fc6" fill-opacity="1.0" id="x428fc6_r66_g143_b198_a1.0_shape40"/>
    <path d="M 59,35 60,35 60,36 59,36 z" fill="#428fc6" fill-opacity="1.0" id="x428fc6_r66_g143_b198_a1.0_shape41"/>
    <path d="M 66,69 66,70 65,70 65,69 z" fill="#428fc6" fill-opacity="1.0" id="x428fc6_r66_g143_b198_a1.0_shape42"/>
    <path d="M 65,72 65,71 66,71 66,72 z" fill="#428fc6" fill-opacity="1.0" id="x428fc6_r66_g143_b198_a1.0_shape43"/>
  </g>
  <g id="x000000_r0_g0_b0_a0.25098039215686274">
    <path d="M 11,68 10,68 10,67 11,67 z" fill="#000000" fill-opacity="0.25098039215686274" id="x000000_r0_g0_b0_a0.25098039215686274_shape1"/>
    <path d="M 10,73 11,73 11,74 10,74 z" fill="#000000" fill-opacity="0.25098039215686274" id="x000000_r0_g0_b0_a0.25098039215686274_shape2"/>
    <path d="M 13,77 13,76 14,76 14,77 z" fill="#000000" fill-opacity="0.25098039215686274" id="x000000_r0_g0_b0_a0.25098039215686274_shape3"/>
    <path d="M 17,32 16,32 16,31 17,31 z" fill="#000000" fill-opacity="0.25098039215686274" id="x000000_r0_g0_b0_a0.25098039215686274_shape4"/>
    <path d="M 17,38 16,38 16,37 17,37 z" fill="#000000" fill-opacity="0.25098039215686274" id="x000000_r0_g0_b0_a0.25098039215686274_shape5"/>
    <path d="M 18,39 18,40 17,40 17,39 z" fill="#000000" fill-opacity="0.25098039215686274" id="x000000_r0_g0_b0_a0.25098039215686274_shape6"/>
    <path d="M 19,28 20,28 20,29 19,29 z" fill="#000000" fill-opacity="0.25098039215686274" id="x000000_r0_g0_b0_a0.25098039215686274_shape7"/>
    <path d="M 27,7 27,8 26,8 26,7 z" fill="#000000" fill-opacity="0.25098039215686274" id="x000000_r0_g0_b0_a0.25098039215686274_shape8"/>
    <path d="M 35,58 35,57 36,57 36,58 z" fill="#000000" fill-opacity="0.25098039215686274" id="x000000_r0_g0_b0_a0.25098039215686274_shape9"/>
    <path d="M 37,58 38,58 38,59 37,59 z" fill="#000000" fill-opacity="0.25098039215686274" id="x000000_r0_g0_b0_a0.25098039215686274_shape10"/>
    <path d="M 44,58 44,59 43,59 43,58 z" fill="#000000" fill-opacity="0.25098039215686274" id="x000000_r0_g0_b0_a0.25098039215686274_shape11"/>
    <path d="M 51,4 52,4 52,5 51,5 z" fill="#000000" fill-opacity="0.25098039215686274" id="x000000_r0_g0_b0_a0.25098039215686274_shape12"/>
    <path d="M 54,8 54,7 55,7 55,8 z" fill="#000000" fill-opacity="0.25098039215686274" id="x000000_r0_g0_b0_a0.25098039215686274_shape13"/>
    <path d="M 61,28 62,28 62,29 61,29 z" fill="#000000" fill-opacity="0.25098039215686274" id="x000000_r0_g0_b0_a0.25098039215686274_shape14"/>
    <path d="M 64,31 65,31 65,32 64,32 z" fill="#000000" fill-opacity="0.25098039215686274" id="x000000_r0_g0_b0_a0.25098039215686274_shape15"/>
    <path d="M 64,37 65,37 65,38 64,38 z" fill="#000000" fill-opacity="0.25098039215686274" id="x000000_r0_g0_b0_a0.25098039215686274_shape16"/>
    <path d="M 68,65 67,65 67,64 68,64 z" fill="#000000" fill-opacity="0.25098039215686274" id="x000000_r0_g0_b0_a0.25098039215686274_shape17"/>
    <path d="M 68,76 68,77 67,77 67,76 z" fill="#000000" fill-opacity="0.25098039215686274" id="x000000_r0_g0_b0_a0.25098039215686274_shape18"/>
    <path d="M 71,68 70,68 70,67 71,67 z" fill="#000000" fill-opacity="0.25098039215686274" id="x000000_r0_g0_b0_a0.25098039215686274_shape19"/>
    <path d="M 70,73 71,73 71,74 70,74 z" fill="#000000" fill-opacity="0.25098039215686274" id="x000000_r0_g0_b0_a0.25098039215686274_shape20"/>
  </g>
  <g id="x275a7f_r39_g90_b127_a1.0">
    <path d="M 17,69 16,69 16,68 17,68 z" fill="#275a7f" fill-opacity="1.0" id="x275a7f_r39_g90_b127_a1.0_shape1"/>
    <path d="M 16,73 16,72 17,72 17,73 z" fill="#275a7f" fill-opacity="1.0" id="x275a7f_r39_g90_b127_a1.0_shape2"/>
    <path d="M 22,32 23,32 23,33 22,33 z" fill="#275a7f" fill-opacity="1.0" id="x275a7f_r39_g90_b127_a1.0_shape3"/>
    <path d="M 31,10 31,11 30,11 30,10 z" fill="#275a7f" fill-opacity="1.0" id="x275a7f_r39_g90_b127_a1.0_shape4"/>
    <path d="M 33,9 32,9 32,8 33,8 z" fill="#275a7f" fill-opacity="1.0" id="x275a7f_r39_g90_b127_a1.0_shape5"/>
    <path d="M 49,8 49,9 48,9 48,8 z" fill="#275a7f" fill-opacity="1.0" id="x275a7f_r39_g90_b127_a1.0_shape6"/>
    <path d="M 51,11 50,11 50,10 51,10 z" fill="#275a7f" fill-opacity="1.0" id="x275a7f_r39_g90_b127_a1.0_shape7"/>
    <path d="M 58,33 58,32 59,32 59,33 z" fill="#275a7f" fill-opacity="1.0" id="x275a7f_r39_g90_b127_a1.0_shape8"/>
    <path d="M 64,68 65,68 65,69 64,69 z" fill="#275a7f" fill-opacity="1.0" id="x275a7f_r39_g90_b127_a1.0_shape9"/>
    <path d="M 64,73 64,72 65,72 65,73 z" fill="#275a7f" fill-opacity="1.0" id="x275a7f_r39_g90_b127_a1.0_shape10"/>
  </g>
  <g id="x4ca3e1_r76_g163_b225_a1.0">
    <path d="M 22,36 21,36 21,35 22,35 z" fill="#4ca3e1" fill-opacity="1.0" id="x4ca3e1_r76_g163_b225_a1.0_shape1"/>
    <path d="M 30,33 29,33 29,32 30,32 z" fill="#4ca3e1" fill-opacity="1.0" id="x4ca3e1_r76_g163_b225_a1.0_shape2"/>
    <path d="M 31,32 30,32 30,31 31,31 z" fill="#4ca3e1" fill-opacity="1.0" id="x4ca3e1_r76_g163_b225_a1.0_shape3"/>
    <path d="M 40,53 40,54 39,54 39,53 z" fill="#4ca3e1" fill-opacity="1.0" id="x4ca3e1_r76_g163_b225_a1.0_shape4"/>
    <path d="M 51,32 50,32 50,31 51,31 z" fill="#4ca3e1" fill-opacity="1.0" id="x4ca3e1_r76_g163_b225_a1.0_shape5"/>
    <path d="M 51,33 51,32 52,32 52,33 z" fill="#4ca3e1" fill-opacity="1.0" id="x4ca3e1_r76_g163_b225_a1.0_shape6"/>
  </g>
  <g id="x214e6f_r33_g78_b111_a1.0">
    <path d="M 14,71 14,70 15,70 15,71 z" fill="#214e6f" fill-opacity="1.0" id="x214e6f_r33_g78_b111_a1.0_shape1"/>
    <path d="M 21,34 21,35 20,35 20,34 z" fill="#214e6f" fill-opacity="1.0" id="x214e6f_r33_g78_b111_a1.0_shape2"/>
    <path d="M 40,54 41,54 41,55 40,55 z" fill="#214e6f" fill-opacity="1.0" id="x214e6f_r33_g78_b111_a1.0_shape3"/>
    <path d="M 60,34 61,34 61,35 60,35 z" fill="#214e6f" fill-opacity="1.0" id="x214e6f_r33_g78_b111_a1.0_shape4"/>
    <path d="M 67,71 66,71 66,70 67,70 z" fill="#214e6f" fill-opacity="1.0" id="x214e6f_r33_g78_b111_a1.0_shape5"/>
  </g>
  <g id="x000000_r0_g0_b0_a0.8117647058823529">
    <path d="M 15,64 16,64 16,65 15,65 14,65 14,64 z" fill="#000000" fill-opacity="0.8117647058823529" id="x000000_r0_g0_b0_a0.8117647058823529_shape1"/>
    <path d="M 31,5 30,5 30,4 31,4 32,4 32,5 z" fill="#000000" fill-opacity="0.8117647058823529" id="x000000_r0_g0_b0_a0.8117647058823529_shape2"/>
  </g>
  <g id="x000000_r0_g0_b0_a0.5764705882352941">
    <path d="M 13,66 12,66 12,65 13,65 z" fill="#000000" fill-opacity="0.5764705882352941" id="x000000_r0_g0_b0_a0.5764705882352941_shape1"/>
    <path d="M 28,5 29,5 29,6 28,6 z" fill="#000000" fill-opacity="0.5764705882352941" id="x000000_r0_g0_b0_a0.5764705882352941_shape2"/>
  </g>
  <g id="x000000_r0_g0_b0_a0.9215686274509803">
    <path d="M 27,29 26,29 26,28 27,28 z" fill="#000000" fill-opacity="0.9215686274509803" id="x000000_r0_g0_b0_a0.9215686274509803_shape1"/>
    <path d="M 55,29 54,29 54,28 55,28 z" fill="#000000" fill-opacity="0.9215686274509803" id="x000000_r0_g0_b0_a0.9215686274509803_shape2"/>
  </g>
</svg>
