<svg version="1.0" viewBox="0 0 96 96" xmlns="http://www.w3.org/2000/svg" xmlns:xlink="http://www.w3.org/1999/xlink">
 <title>icon_geolog</title>
 <defs>
  <radialGradient id="f" cx="48.229" cy="51.9" r="47.77" gradientTransform="matrix(1.1635 -.96151 .89064 1.0777 -52.325 41.315)" gradientUnits="userSpaceOnUse">
   <stop stop-opacity="0" offset="0"/>
   <stop stop-color="#fff" stop-opacity="0" offset=".466"/>
   <stop stop-color="#fff" stop-opacity=".4314" offset=".7709"/>
   <stop stop-opacity="0" offset="1"/>
  </radialGradient>
  <radialGradient id="e" cx="40.373" cy="48.261" r="47.78" gradientTransform="matrix(.7906 1.0467 -1.0956 .82753 63.654 -40.608)" gradientUnits="userSpaceOnUse">
   <stop stop-opacity="0" offset="0"/>
   <stop stop-opacity="0" offset=".5909"/>
   <stop stop-opacity=".502" offset=".8913"/>
   <stop stop-color="#00a14b" stop-opacity="0" offset="1"/>
  </radialGradient>
  <linearGradient id="d" x1="73.798" x2="3.6828" y1="88.996" y2="9.4646" gradientTransform="translate(3.9976 .9225)" gradientUnits="userSpaceOnUse">
   <stop offset="0"/>
   <stop stop-opacity="0" offset="1"/>
  </linearGradient>
 </defs>
 <path d="m95.77 48.001c1.1762 30.978-32.668 55.877-61.887 45.636-29.922-8.0367-43.761-47.712-25.309-72.609 16.521-26.222 58.511-27.708 76.845-2.7213 6.668 8.3597 10.376 19.002 10.35 29.694z" fill="#004b8d"/>
 <path d="M63.7122 61.988c-.5685.0801-1.1632-.8054-1.3284-1.9779-.1652-1.1724.1618-2.1877.7302-2.2679.5685-.08 1.1632.8055 1.3284 1.978.1651 1.1724-.1618 2.1877-.7302 2.2678zm-.9052-4.9723c-.734.0126-1.3502-1.207-1.3763-2.7242-.0261-1.5171.5478-2.7573 1.2818-2.77.734-.0125 1.3502 1.2071 1.3763 2.7242.0261 1.5172-.5478 2.7573-1.2818 2.77zm-.282-6.0183c-.931-.0996-1.5269-1.7472-1.3262-3.6814.2037-1.9312 1.1285-3.4233 2.0624-3.3237.937.098 1.5299 1.7471 1.3292 3.6798-.2067 1.9342-1.1255 3.4233-2.0654 3.3253zm.8995-7.9978c-1.1465-.2642-1.6334-2.399-1.0876-4.7685.5459-2.3694 1.9178-4.0761 3.0644-3.812 1.1465.2642 1.6335 2.3991 1.0876 4.7685-.5458 2.3695-1.9178 4.0762-3.0644 3.812zm2.2997-9.4635c-1.418-.516-1.7034-3.309-.6373-6.2383 1.0661-2.9292 3.0799-4.8855 4.4979-4.3694 1.418.516 1.7034 3.309.6373 6.2383-1.0661 2.9294-3.08 4.8857-4.498 4.3694zm4.1583-11.5933c-1.5175-.8764-1.2785-4.1308.5337-7.269 1.8122-3.138 4.5114-4.9717 6.029-4.0955 1.5176.8763 1.2787 4.1308-.5336 7.269-1.8123 3.1382-4.5116 4.9718-6.0291 4.0955zm-31.257 31.4206c.1528-.5525 1.202-.7445 2.3432-.4287s1.9424 1.0197 1.7895 1.5722c-.1528.5526-1.202.7445-2.3432.4287s-1.9423-1.0197-1.7894-1.5722zm4.612 1.5984c.3227-.6593 1.6892-.653 3.052.014 1.3629.667 2.2061 1.7421 1.8835 2.4015-.3227.6594-1.689.6532-3.052-.0138s-2.2062-1.7423-1.8835-2.4017zm5.5876 2.6434c.5532-.7609 2.2767-.4506 3.8497.693 1.5729 1.1434 2.3996 2.6872 1.8465 3.4481-.5532.7609-2.2767.4507-3.8497-.6929-1.5729-1.1435-2.3996-2.6873-1.8465-3.4482zm6.4803 4.7768c.8021-.8608 2.8943-.2146 4.673 1.4432 1.7786 1.6578 2.5701 3.6994 1.7679 4.56-.8022.8607-2.8943.2145-4.6729-1.4433-1.7786-1.6577-2.5702-3.6993-1.768-4.56zm7.0327 6.719c1.1561-.9697 3.7173.18 5.7207 2.568s2.6903 5.1101 1.5343 6.08c-1.1561.9698-3.7173-.18-5.7207-2.568s-2.6903-5.11-1.5343-6.08zm7.9668 9.4046c1.5184-.8762 4.2176.9578 6.0288 4.0964.5273.9138.9212 1.817 1.1772 2.689l-2.2916 1.6994-2.2702 1.5166c-.7539-.7154-1.4872-1.6455-2.1141-2.7319-1.8112-3.1386-2.0485-6.3932-.5301-7.2695zM58.649 35.7621c.353.4511-.1207 1.4077-1.0486 2.1364-.9309.7272-1.978.9535-2.331.5024-.347-.451.1207-1.4077 1.0546-2.1364.9324-.7287 1.972-.9535 2.325-.5024zm-3.859 3.2735c.378.6293-.3698 1.7729-1.6705 2.5543-1.3007.7815-2.6616.9048-3.0396.2755-.378-.6292.3698-1.7728 1.6705-2.5543 1.3007-.7814 2.6616-.9048 3.0396-.2755zm-5.0645 3.252c.3826.8595-.7476 2.1974-2.5244 2.9883-1.7768.791-3.5274.7355-3.91-.124-.3826-.8594.7476-2.1974 2.5245-2.9884 1.7768-.791 3.5273-.7354 3.9099.124zm-7.3842 3.2248c.3442 1.126-1.2618 2.615-3.587 3.3256-2.3252.7107-4.489.374-4.8332-.7519-.344-1.126 1.2619-2.6148 3.587-3.3255 2.3251-.7107 4.489-.374 4.8332.7518zm-9.3384 2.7327c.262 1.4861-2.0142 3.1295-5.084 3.6706-3.0698.5412-5.7707-.2249-6.0327-1.711-.262-1.486 2.0142-3.1294 5.084-3.6706 3.0698-.5411 5.7708.225 6.0327 1.711zm-12.1206 2.1954c0 1.7532-2.9384 3.1744-6.563 3.1744-3.6246 0-6.563-1.4212-6.563-3.1744 0-1.7531 2.9384-3.1744 6.563-3.1744 3.6246 0 6.563 1.4213 6.563 3.1744z" fill="url(#d)"/>
 <g fill="#fff">
  <g transform="translate(-24.419 -24.42) scale(1.5087)">
   <ellipse cx="22.264" cy="47.958" rx="4.35" ry="2.104"/>
   <ellipse transform="rotate(-10.003 30.959 47.155)" cx="30.964" cy="47.153" rx="3.741" ry="1.811"/>
   <ellipse transform="rotate(-16.996 38.054 45.549)" cx="38.049" cy="45.544" rx="2.918" ry="1.413"/>
   <ellipse transform="rotate(-23.997 43.594 43.501)" cx="43.597" cy="43.503" rx="2.334" ry="1.129"/>
   <ellipse transform="rotate(-30.996 47.526 41.336)" cx="47.527" cy="41.337" rx="1.821" ry=".881"/>
   <path d="M51.646 38.229c.234.299-.08.933-.695 1.416-.617.482-1.311.632-1.545.333-.23-.299.08-.933.699-1.416.618-.483 1.307-.632 1.541-.333z"/>
  </g>
  <g transform="translate(-24.419 -24.42) scale(1.5087)">
   <ellipse transform="rotate(240.01 61.548 70.326)" cx="61.547" cy="70.324" rx="4.349" ry="2.104"/>
   <ellipse transform="rotate(230.01 56.498 63.193)" cx="56.5" cy="63.191" rx="3.741" ry="1.811"/>
   <ellipse transform="rotate(222.99 51.566 57.862)" cx="51.564" cy="57.86" rx="2.918" ry="1.412"/>
   <ellipse transform="rotate(216.02 47.024 54.078)" cx="47.022" cy="54.076" rx="2.334" ry="1.129"/>
   <ellipse transform="rotate(206.08 43.066 51.755)" cx="43.065" cy="51.755" rx="1.821" ry=".881"/>
   <ellipse transform="rotate(195.46 39.746 50.274)" cx="39.747" cy="50.274" rx="1.421" ry=".688"/>
  </g>
  <g transform="translate(-24.419 -24.42) scale(1.5087)">
   <ellipse transform="rotate(120.01 61.266 25.301)" cx="61.269" cy="25.302" rx="4.349" ry="2.103"/>
   <ellipse transform="rotate(110 57.615 33.238)" cx="57.615" cy="33.239" rx="3.741" ry="1.811"/>
   <ellipse transform="rotate(102.97 55.465 40.18)" cx="55.466" cy="40.179" rx="2.918" ry="1.412"/>
   <path d="M54.215 48.327c-.617-.066-1.012-1.158-.879-2.44.135-1.28.748-2.269 1.367-2.203.621.065 1.014 1.158.881 2.439-.137 1.282-.746 2.269-1.369 2.204z"/>
   <ellipse transform="rotate(89.014 54.369 50.49)" cx="54.371" cy="50.491" rx="1.821" ry=".881"/>
   <ellipse transform="rotate(81.981 54.807 54.205)" cx="54.806" cy="54.208" rx="1.421" ry=".689"/>
  </g>
 </g>
 <path d="m95.77 48.001c1.1762 30.978-32.668 55.877-61.887 45.636-29.922-8.0367-43.761-47.712-25.309-72.609 16.521-26.222 58.511-27.708 76.845-2.7213 6.668 8.3597 10.376 19.002 10.35 29.694z" fill="url(#e)"/>
 <path d="m95.77 48.001c1.1762 30.978-32.668 55.877-61.887 45.636-29.922-8.0367-43.761-47.712-25.309-72.609 16.521-26.222 58.511-27.708 76.845-2.7213 6.668 8.3597 10.376 19.002 10.35 29.694z" fill="url(#f)"/>
</svg>
