<?xml version="1.0" encoding="utf-8" ?>
<svg xmlns="http://www.w3.org/2000/svg" xmlns:ev="http://www.w3.org/2001/xml-events" xmlns:xlink="http://www.w3.org/1999/xlink" baseProfile="full" height="36px" version="1.1" viewBox="0 0 36 36" width="36px">
  <defs/>
  <g id="xb3b3b3_r179_g179_b179_a1.0">
    <path d="M 24,5 31,5 31,12 21,12 21,10 19,10 19,9 18,9 18,10 16,10 16,11 15,11 15,12 5,12 5,5 z" fill="#b3b3b3" fill-opacity="1.0" id="xb3b3b3_r179_g179_b179_a1.0_shape1"/>
    <path d="M 5,24 15,24 15,25 16,25 16,26 18,26 18,27 19,27 19,26 21,26 21,24 27,24 31,24 31,31 21,31 6,31 5,31 z" fill="#b3b3b3" fill-opacity="1.0" id="xb3b3b3_r179_g179_b179_a1.0_shape2"/>
  </g>
  <g id="x008000_r0_g128_b0_a1.0">
    <path d="M 5,23 5,13 15,13 15,14 16,14 16,15 17,15 17,16 19,16 19,15 21,15 21,13 31,13 31,23 27,23 21,23 21,21 19,21 19,20 17,20 17,21 16,21 16,22 15,22 15,23 z" fill="#008000" fill-opacity="1.0" id="x008000_r0_g128_b0_a1.0_shape1"/>
  </g>
  <g id="xb2b2b2_r178_g178_b178_a0.16862745098039217">
    <path d="M 31,4 31,5 5,5 5,4 z" fill="#b2b2b2" fill-opacity="0.16862745098039217" id="xb2b2b2_r178_g178_b178_a0.16862745098039217_shape1"/>
    <path d="M 5,32 5,31 31,31 31,32 z" fill="#b2b2b2" fill-opacity="0.16862745098039217" id="xb2b2b2_r178_g178_b178_a0.16862745098039217_shape2"/>
    <path d="M 4,5 5,5 5,6 5,12 4,12 4,7 z" fill="#b2b2b2" fill-opacity="0.16862745098039217" id="xb2b2b2_r178_g178_b178_a0.16862745098039217_shape3"/>
    <path d="M 32,12 31,12 31,10 31,5 32,5 32,8 z" fill="#b2b2b2" fill-opacity="0.16862745098039217" id="xb2b2b2_r178_g178_b178_a0.16862745098039217_shape4"/>
    <path d="M 5,24 5,31 4,31 4,24 z" fill="#b2b2b2" fill-opacity="0.16862745098039217" id="xb2b2b2_r178_g178_b178_a0.16862745098039217_shape5"/>
    <path d="M 31,24 32,24 32,26 32,31 31,31 31,28 z" fill="#b2b2b2" fill-opacity="0.16862745098039217" id="xb2b2b2_r178_g178_b178_a0.16862745098039217_shape6"/>
  </g>
  <g id="x5c9a5c_r92_g154_b92_a1.0">
    <path d="M 5,13 5,12 15,12 15,13 z" fill="#5c9a5c" fill-opacity="1.0" id="x5c9a5c_r92_g154_b92_a1.0_shape1"/>
    <path d="M 31,13 21,13 21,12 31,12 z" fill="#5c9a5c" fill-opacity="1.0" id="x5c9a5c_r92_g154_b92_a1.0_shape2"/>
    <path d="M 15,23 15,24 5,24 5,23 z" fill="#5c9a5c" fill-opacity="1.0" id="x5c9a5c_r92_g154_b92_a1.0_shape3"/>
    <path d="M 21,24 21,23 31,23 31,24 z" fill="#5c9a5c" fill-opacity="1.0" id="x5c9a5c_r92_g154_b92_a1.0_shape4"/>
  </g>
  <g id="x519851_r81_g152_b81_a0.30980392156862746">
    <path d="M 4,13 5,13 5,23 4,23 z" fill="#519851" fill-opacity="0.30980392156862746" id="x519851_r81_g152_b81_a0.30980392156862746_shape1"/>
    <path d="M 32,23 31,23 31,13 32,13 z" fill="#519851" fill-opacity="0.30980392156862746" id="x519851_r81_g152_b81_a0.30980392156862746_shape2"/>
  </g>
  <g id="xffffff_r255_g255_b255_a1.0">
    <path d="M 20,13 19,13 19,14 18,14 17,14 17,13 17,12 17,11 18,11 19,11 19,12 20,12 z" fill="#ffffff" fill-opacity="1.0" id="xffffff_r255_g255_b255_a1.0_shape1"/>
    <path d="M 19,22 19,23 20,23 20,24 19,24 19,25 17,25 17,22 z" fill="#ffffff" fill-opacity="1.0" id="xffffff_r255_g255_b255_a1.0_shape2"/>
  </g>
  <g id="xb6b6b6_r182_g182_b182_a0.027450980392156862">
    <path d="M 5,4 5,5 4,5 4,4 z" fill="#b6b6b6" fill-opacity="0.027450980392156862" id="xb6b6b6_r182_g182_b182_a0.027450980392156862_shape1"/>
    <path d="M 31,4 32,4 32,5 31,5 z" fill="#b6b6b6" fill-opacity="0.027450980392156862" id="xb6b6b6_r182_g182_b182_a0.027450980392156862_shape2"/>
    <path d="M 4,31 5,31 5,32 4,32 z" fill="#b6b6b6" fill-opacity="0.027450980392156862" id="xb6b6b6_r182_g182_b182_a0.027450980392156862_shape3"/>
    <path d="M 32,31 32,32 31,32 31,31 z" fill="#b6b6b6" fill-opacity="0.027450980392156862" id="xb6b6b6_r182_g182_b182_a0.027450980392156862_shape4"/>
  </g>
  <g id="xb0b0b0_r176_g176_b176_a1.0">
    <path d="M 18,10 18,9 19,9 19,10 z" fill="#b0b0b0" fill-opacity="1.0" id="xb0b0b0_r176_g176_b176_a1.0_shape1"/>
    <path d="M 20,10 21,10 21,11 20,11 z" fill="#b0b0b0" fill-opacity="1.0" id="xb0b0b0_r176_g176_b176_a1.0_shape2"/>
    <path d="M 20,25 21,25 21,26 20,26 z" fill="#b0b0b0" fill-opacity="1.0" id="xb0b0b0_r176_g176_b176_a1.0_shape3"/>
    <path d="M 18,27 18,26 19,26 19,27 z" fill="#b0b0b0" fill-opacity="1.0" id="xb0b0b0_r176_g176_b176_a1.0_shape4"/>
  </g>
  <g id="x77a277_r119_g162_b119_a0.23529411764705882">
    <path d="M 5,13 4,13 4,12 5,12 z" fill="#77a277" fill-opacity="0.23529411764705882" id="x77a277_r119_g162_b119_a0.23529411764705882_shape1"/>
    <path d="M 31,13 31,12 32,12 32,13 z" fill="#77a277" fill-opacity="0.23529411764705882" id="x77a277_r119_g162_b119_a0.23529411764705882_shape2"/>
    <path d="M 5,24 4,24 4,23 5,23 z" fill="#77a277" fill-opacity="0.23529411764705882" id="x77a277_r119_g162_b119_a0.23529411764705882_shape3"/>
    <path d="M 31,24 31,23 32,23 32,24 z" fill="#77a277" fill-opacity="0.23529411764705882" id="x77a277_r119_g162_b119_a0.23529411764705882_shape4"/>
  </g>
  <g id="x017d01_r1_g125_b1_a1.0">
    <path d="M 21,15 20,15 20,14 21,14 z" fill="#017d01" fill-opacity="1.0" id="x017d01_r1_g125_b1_a1.0_shape1"/>
    <path d="M 19,15 19,16 18,16 18,15 z" fill="#017d01" fill-opacity="1.0" id="x017d01_r1_g125_b1_a1.0_shape2"/>
    <path d="M 18,20 19,20 19,21 18,21 z" fill="#017d01" fill-opacity="1.0" id="x017d01_r1_g125_b1_a1.0_shape3"/>
    <path d="M 21,22 20,22 20,21 21,21 z" fill="#017d01" fill-opacity="1.0" id="x017d01_r1_g125_b1_a1.0_shape4"/>
  </g>
  <g id="x7c7c7c_r124_g124_b124_a1.0">
    <path d="M 16,10 17,10 17,11 16,11 z" fill="#7c7c7c" fill-opacity="1.0" id="x7c7c7c_r124_g124_b124_a1.0_shape1"/>
    <path d="M 16,25 17,25 17,26 16,26 z" fill="#7c7c7c" fill-opacity="1.0" id="x7c7c7c_r124_g124_b124_a1.0_shape2"/>
  </g>
  <g id="x696969_r105_g105_b105_a1.0">
    <path d="M 18,10 19,10 19,11 18,11 z" fill="#696969" fill-opacity="1.0" id="x696969_r105_g105_b105_a1.0_shape1"/>
    <path d="M 19,25 19,26 18,26 18,25 z" fill="#696969" fill-opacity="1.0" id="x696969_r105_g105_b105_a1.0_shape2"/>
  </g>
  <g id="x989898_r152_g152_b152_a1.0">
    <path d="M 15,11 16,11 16,12 15,12 z" fill="#989898" fill-opacity="1.0" id="x989898_r152_g152_b152_a1.0_shape1"/>
    <path d="M 16,25 15,25 15,24 16,24 z" fill="#989898" fill-opacity="1.0" id="x989898_r152_g152_b152_a1.0_shape2"/>
  </g>
  <g id="x757575_r117_g117_b117_a1.0">
    <path d="M 21,11 21,12 20,12 20,11 z" fill="#757575" fill-opacity="1.0" id="x757575_r117_g117_b117_a1.0_shape1"/>
    <path d="M 21,25 20,25 20,24 21,24 z" fill="#757575" fill-opacity="1.0" id="x757575_r117_g117_b117_a1.0_shape2"/>
  </g>
  <g id="x4a6e4a_r74_g110_b74_a1.0">
    <path d="M 16,12 16,13 15,13 15,12 z" fill="#4a6e4a" fill-opacity="1.0" id="x4a6e4a_r74_g110_b74_a1.0_shape1"/>
    <path d="M 16,24 15,24 15,23 16,23 z" fill="#4a6e4a" fill-opacity="1.0" id="x4a6e4a_r74_g110_b74_a1.0_shape2"/>
  </g>
  <g id="xc7c7c7_r199_g199_b199_a1.0">
    <path d="M 16,13 16,12 17,12 17,13 z" fill="#c7c7c7" fill-opacity="1.0" id="xc7c7c7_r199_g199_b199_a1.0_shape1"/>
    <path d="M 17,23 17,24 16,24 16,23 z" fill="#c7c7c7" fill-opacity="1.0" id="xc7c7c7_r199_g199_b199_a1.0_shape2"/>
  </g>
  <g id="x495849_r73_g88_b73_a1.0">
    <path d="M 21,12 21,13 20,13 20,12 z" fill="#495849" fill-opacity="1.0" id="x495849_r73_g88_b73_a1.0_shape1"/>
    <path d="M 21,24 20,24 20,23 21,23 z" fill="#495849" fill-opacity="1.0" id="x495849_r73_g88_b73_a1.0_shape2"/>
  </g>
  <g id="x1e5f1e_r30_g95_b30_a1.0">
    <path d="M 17,15 16,15 16,14 17,14 z" fill="#1e5f1e" fill-opacity="1.0" id="x1e5f1e_r30_g95_b30_a1.0_shape1"/>
    <path d="M 16,22 16,21 17,21 17,22 z" fill="#1e5f1e" fill-opacity="1.0" id="x1e5f1e_r30_g95_b30_a1.0_shape2"/>
  </g>
  <g id="x007f00_r0_g127_b0_a1.0">
    <path d="M 17,15 18,15 18,16 17,16 z" fill="#007f00" fill-opacity="1.0" id="x007f00_r0_g127_b0_a1.0_shape1"/>
    <path d="M 18,20 18,21 17,21 17,20 z" fill="#007f00" fill-opacity="1.0" id="x007f00_r0_g127_b0_a1.0_shape2"/>
  </g>
  <g id="x616161_r97_g97_b97_a1.0">
    <path d="M 17,11 17,10 18,10 18,11 z" fill="#616161" fill-opacity="1.0" id="x616161_r97_g97_b97_a1.0_shape1"/>
  </g>
  <g id="x646464_r100_g100_b100_a1.0">
    <path d="M 19,11 19,10 20,10 20,11 z" fill="#646464" fill-opacity="1.0" id="x646464_r100_g100_b100_a1.0_shape1"/>
  </g>
  <g id="x808080_r128_g128_b128_a1.0">
    <path d="M 17,11 17,12 16,12 16,11 z" fill="#808080" fill-opacity="1.0" id="x808080_r128_g128_b128_a1.0_shape1"/>
  </g>
  <g id="xc4c4c4_r196_g196_b196_a1.0">
    <path d="M 19,11 20,11 20,12 19,12 z" fill="#c4c4c4" fill-opacity="1.0" id="xc4c4c4_r196_g196_b196_a1.0_shape1"/>
  </g>
  <g id="x056e05_r5_g110_b5_a1.0">
    <path d="M 16,13 16,14 15,14 15,13 z" fill="#056e05" fill-opacity="1.0" id="x056e05_r5_g110_b5_a1.0_shape1"/>
  </g>
  <g id="x747f74_r116_g127_b116_a1.0">
    <path d="M 16,13 17,13 17,14 16,14 z" fill="#747f74" fill-opacity="1.0" id="x747f74_r116_g127_b116_a1.0_shape1"/>
  </g>
  <g id="xc4c7c4_r196_g199_b196_a1.0">
    <path d="M 19,13 20,13 20,14 19,14 z" fill="#c4c7c4" fill-opacity="1.0" id="xc4c7c4_r196_g199_b196_a1.0_shape1"/>
  </g>
  <g id="x1f5b1f_r31_g91_b31_a1.0">
    <path d="M 21,13 21,14 20,14 20,13 z" fill="#1f5b1f" fill-opacity="1.0" id="x1f5b1f_r31_g91_b31_a1.0_shape1"/>
  </g>
  <g id="x4a5b4a_r74_g91_b74_a1.0">
    <path d="M 18,14 18,15 17,15 17,14 z" fill="#4a5b4a" fill-opacity="1.0" id="x4a5b4a_r74_g91_b74_a1.0_shape1"/>
  </g>
  <g id="x586758_r88_g103_b88_a1.0">
    <path d="M 18,15 18,14 19,14 19,15 z" fill="#586758" fill-opacity="1.0" id="x586758_r88_g103_b88_a1.0_shape1"/>
  </g>
  <g id="x2b502b_r43_g80_b43_a1.0">
    <path d="M 19,14 20,14 20,15 19,15 z" fill="#2b502b" fill-opacity="1.0" id="x2b502b_r43_g80_b43_a1.0_shape1"/>
  </g>
  <g id="x4b5c4b_r75_g92_b75_a1.0">
    <path d="M 18,21 18,22 17,22 17,21 z" fill="#4b5c4b" fill-opacity="1.0" id="x4b5c4b_r75_g92_b75_a1.0_shape1"/>
  </g>
  <g id="x596859_r89_g104_b89_a1.0">
    <path d="M 18,22 18,21 19,21 19,22 z" fill="#596859" fill-opacity="1.0" id="x596859_r89_g104_b89_a1.0_shape1"/>
  </g>
  <g id="x2c512c_r44_g81_b44_a1.0">
    <path d="M 20,21 20,22 19,22 19,21 z" fill="#2c512c" fill-opacity="1.0" id="x2c512c_r44_g81_b44_a1.0_shape1"/>
  </g>
  <g id="x056d05_r5_g109_b5_a1.0">
    <path d="M 15,23 15,22 16,22 16,23 z" fill="#056d05" fill-opacity="1.0" id="x056d05_r5_g109_b5_a1.0_shape1"/>
  </g>
  <g id="x758075_r117_g128_b117_a1.0">
    <path d="M 17,22 17,23 16,23 16,22 z" fill="#758075" fill-opacity="1.0" id="x758075_r117_g128_b117_a1.0_shape1"/>
  </g>
  <g id="xc5c8c5_r197_g200_b197_a1.0">
    <path d="M 20,22 20,23 19,23 19,22 z" fill="#c5c8c5" fill-opacity="1.0" id="xc5c8c5_r197_g200_b197_a1.0_shape1"/>
  </g>
  <g id="x205b20_r32_g91_b32_a1.0">
    <path d="M 20,22 21,22 21,23 20,23 z" fill="#205b20" fill-opacity="1.0" id="x205b20_r32_g91_b32_a1.0_shape1"/>
  </g>
  <g id="x7f7f7f_r127_g127_b127_a1.0">
    <path d="M 16,25 16,24 17,24 17,25 z" fill="#7f7f7f" fill-opacity="1.0" id="x7f7f7f_r127_g127_b127_a1.0_shape1"/>
  </g>
  <g id="xc3c3c3_r195_g195_b195_a1.0">
    <path d="M 20,24 20,25 19,25 19,24 z" fill="#c3c3c3" fill-opacity="1.0" id="xc3c3c3_r195_g195_b195_a1.0_shape1"/>
  </g>
  <g id="x606060_r96_g96_b96_a1.0">
    <path d="M 17,26 17,25 18,25 18,26 z" fill="#606060" fill-opacity="1.0" id="x606060_r96_g96_b96_a1.0_shape1"/>
  </g>
  <g id="x636363_r99_g99_b99_a1.0">
    <path d="M 20,25 20,26 19,26 19,25 z" fill="#636363" fill-opacity="1.0" id="x636363_r99_g99_b99_a1.0_shape1"/>
  </g>
</svg>
