<?xml version="1.0" encoding="utf-8" ?>
<svg xmlns="http://www.w3.org/2000/svg" xmlns:ev="http://www.w3.org/2001/xml-events" xmlns:xlink="http://www.w3.org/1999/xlink" baseProfile="full" height="16px" version="1.1" viewBox="0 0 16 16" width="16px">
  <defs/>
  <g id="xaeaeae_r174_g174_b174">
    <path d="M 7,15 5,15 5,13 4,13 4,15 1,15 1,9 3,9 3,8 1,8 1,3 2,3 4,3 4,2 5,2 5,3 7,3 7,4 z M 4,12 5,12 5,11 5,10 4,10 4,11 z M 6,9 6,8 5,8 5,7 4,7 4,9 z M 5,4 4,4 4,5 4,6 5,6 5,5 z" fill="#aeaeae" fill-opacity="1.0" id="xaeaeae_r174_g174_b174_shape1"/>
    <path d="M 9,3 11,3 11,2 12,2 12,3 13,3 15,3 15,8 13,8 13,9 15,9 15,13 15,15 12,15 12,14 12,13 11,13 11,14 11,15 9,15 9,12 9,6 z M 10,8 10,9 12,9 12,7 11,7 11,8 z M 11,6 12,6 12,5 12,4 11,4 11,5 z M 11,12 12,12 12,11 12,10 11,10 11,11 z" fill="#aeaeae" fill-opacity="1.0" id="xaeaeae_r174_g174_b174_shape2"/>
  </g>
  <g id="x6c6c6b_r108_g108_b107">
    <path d="M 9,15 7,15 7,10 7,3 9,3 9,7 z" fill="#6c6c6b" fill-opacity="1.0" id="x6c6c6b_r108_g108_b107_shape1"/>
  </g>
  <g id="x2a2a29_r42_g42_b41">
    <path d="M 1,15 4,15 4,16 0,16 0,9 1,9 z" fill="#2a2a29" fill-opacity="1.0" id="x2a2a29_r42_g42_b41_shape1"/>
    <path d="M 15,0 16,0 16,3 16,8 15,8 15,6 z" fill="#2a2a29" fill-opacity="1.0" id="x2a2a29_r42_g42_b41_shape2"/>
  </g>
  <g id="x292929_r41_g41_b41">
    <path d="M 16,16 5,16 5,15 15,15 15,9 16,9 z" fill="#292929" fill-opacity="1.0" id="x292929_r41_g41_b41_shape1"/>
  </g>
  <g id="x3b130c_r59_g19_b12">
    <path d="M 1,8 0,8 0,0 5,0 9,0 9,1 7,1 1,1 z" fill="#3b130c" fill-opacity="1.0" id="x3b130c_r59_g19_b12_shape1"/>
  </g>
  <g id="xdfdfdf_r223_g223_b223">
    <path d="M 1,1 7,1 7,2 1,2 z" fill="#dfdfdf" fill-opacity="1.0" id="xdfdfdf_r223_g223_b223_shape1"/>
    <path d="M 9,2 9,1 14,1 15,1 15,2 14,2 z" fill="#dfdfdf" fill-opacity="1.0" id="xdfdfdf_r223_g223_b223_shape2"/>
  </g>
  <g id="x7c7c7c_r124_g124_b124">
    <path d="M 4,2 4,3 1,3 1,2 z" fill="#7c7c7c" fill-opacity="1.0" id="x7c7c7c_r124_g124_b124_shape1"/>
    <path d="M 12,3 12,2 14,2 15,2 15,3 14,3 z" fill="#7c7c7c" fill-opacity="1.0" id="x7c7c7c_r124_g124_b124_shape2"/>
    <path d="M 7,3 5,3 5,2 7,2 z" fill="#7c7c7c" fill-opacity="1.0" id="x7c7c7c_r124_g124_b124_shape3"/>
    <path d="M 11,3 9,3 9,2 11,2 z" fill="#7c7c7c" fill-opacity="1.0" id="x7c7c7c_r124_g124_b124_shape4"/>
  </g>
  <g id="xc0bfba_r192_g191_b186">
    <path d="M 4,6 4,4 5,4 5,6 z" fill="#c0bfba" fill-opacity="1.0" id="xc0bfba_r192_g191_b186_shape1"/>
    <path d="M 4,11 4,10 5,10 5,11 5,12 4,12 z" fill="#c0bfba" fill-opacity="1.0" id="xc0bfba_r192_g191_b186_shape2"/>
    <path d="M 12,6 11,6 11,5 11,4 12,4 12,5 z" fill="#c0bfba" fill-opacity="1.0" id="xc0bfba_r192_g191_b186_shape3"/>
    <path d="M 12,10 12,12 11,12 11,10 z" fill="#c0bfba" fill-opacity="1.0" id="xc0bfba_r192_g191_b186_shape4"/>
    <path d="M 1,9 1,8 2,8 2,9 z" fill="#c0bfba" fill-opacity="1.0" id="xc0bfba_r192_g191_b186_shape5"/>
    <path d="M 14,9 14,8 15,8 15,9 z" fill="#c0bfba" fill-opacity="1.0" id="xc0bfba_r192_g191_b186_shape6"/>
  </g>
  <g id="x393412_r57_g52_b18">
    <path d="M 15,0 15,1 12,1 9,1 9,0 10,0 z" fill="#393412" fill-opacity="1.0" id="x393412_r57_g52_b18_shape1"/>
  </g>
  <g id="xc2c1bb_r194_g193_b187">
    <path d="M 4,9 4,7 5,7 5,9 z" fill="#c2c1bb" fill-opacity="1.0" id="xc2c1bb_r194_g193_b187_shape1"/>
    <path d="M 12,9 11,9 11,8 11,7 12,7 12,8 z" fill="#c2c1bb" fill-opacity="1.0" id="xc2c1bb_r194_g193_b187_shape2"/>
  </g>
  <g id="xc5c4bd_r197_g196_b189">
    <path d="M 5,14 4,14 4,13 5,13 z" fill="#c5c4bd" fill-opacity="1.0" id="xc5c4bd_r197_g196_b189_shape1"/>
    <path d="M 6,8 6,9 5,9 5,8 z" fill="#c5c4bd" fill-opacity="1.0" id="xc5c4bd_r197_g196_b189_shape2"/>
    <path d="M 11,9 10,9 10,8 11,8 z" fill="#c5c4bd" fill-opacity="1.0" id="xc5c4bd_r197_g196_b189_shape3"/>
    <path d="M 12,13 12,14 11,14 11,13 z" fill="#c5c4bd" fill-opacity="1.0" id="xc5c4bd_r197_g196_b189_shape4"/>
  </g>
  <g id="x4e4e4c_r78_g78_b76">
    <path d="M 9,3 7,3 7,1 9,1 z" fill="#4e4e4c" fill-opacity="1.0" id="x4e4e4c_r78_g78_b76_shape1"/>
  </g>
  <g id="x33332f_r51_g51_b47">
    <path d="M 0,8 1,8 1,9 0,9 z" fill="#33332f" fill-opacity="1.0" id="x33332f_r51_g51_b47_shape1"/>
    <path d="M 15,8 16,8 16,9 15,9 z" fill="#33332f" fill-opacity="1.0" id="x33332f_r51_g51_b47_shape2"/>
  </g>
  <g id="xc7c6be_r199_g198_b190">
    <path d="M 3,9 2,9 2,8 3,8 z" fill="#c7c6be" fill-opacity="1.0" id="xc7c6be_r199_g198_b190_shape1"/>
    <path d="M 13,8 14,8 14,9 13,9 z" fill="#c7c6be" fill-opacity="1.0" id="xc7c6be_r199_g198_b190_shape2"/>
  </g>
  <g id="xbfbeb9_r191_g190_b185">
    <path d="M 5,15 4,15 4,14 5,14 z" fill="#bfbeb9" fill-opacity="1.0" id="xbfbeb9_r191_g190_b185_shape1"/>
    <path d="M 11,15 11,14 12,14 12,15 z" fill="#bfbeb9" fill-opacity="1.0" id="xbfbeb9_r191_g190_b185_shape2"/>
  </g>
  <g id="x32322e_r50_g50_b46">
    <path d="M 5,15 5,16 4,16 4,15 z" fill="#32322e" fill-opacity="1.0" id="x32322e_r50_g50_b46_shape1"/>
  </g>
</svg>
