<svg width="154" height="154" viewBox="0 0 154 154" fill="none" xmlns="http://www.w3.org/2000/svg">
<path d="M77 19.25C108.894 19.25 134.75 45.1056 134.75 77C134.75 108.894 108.894 134.75 77 134.75C45.1056 134.75 19.25 108.894 19.25 77C19.25 45.1056 45.1056 19.25 77 19.25ZM77 28.875C50.4213 28.875 28.875 50.4213 28.875 77C28.875 103.579 50.4213 125.125 77 125.125C103.579 125.125 125.125 103.579 125.125 77C125.125 50.4213 103.579 28.875 77 28.875ZM77 101.062C80.9868 101.062 84.2188 104.294 84.2188 108.281C84.2188 112.268 80.9868 115.5 77 115.5C73.0132 115.5 69.7812 112.268 69.7812 108.281C69.7812 104.294 73.0132 101.062 77 101.062ZM77 43.3125C87.6315 43.3125 96.25 51.931 96.25 62.5625C96.25 69.5939 94.2116 73.532 88.9932 79.0011L86.4514 81.5955C82.8184 85.3836 81.8125 87.4248 81.8125 91.4375C81.8125 94.0954 79.6579 96.25 77 96.25C74.3421 96.25 72.1875 94.0954 72.1875 91.4375C72.1875 84.4061 74.2259 80.468 79.4443 74.9989L81.9861 72.4045C85.6191 68.6164 86.625 66.5752 86.625 62.5625C86.625 57.2468 82.3157 52.9375 77 52.9375C71.6843 52.9375 67.375 57.2468 67.375 62.5625C67.375 65.2204 65.2204 67.375 62.5625 67.375C59.9046 67.375 57.75 65.2204 57.75 62.5625C57.75 51.931 66.3685 43.3125 77 43.3125Z" fill="#26C252"/>
</svg>
